<!DOCTYPE svg PUBLIC "-//W3C//DTD SVG 20010904//EN" "http://www.w3.org/TR/2001/REC-SVG-20010904/DTD/svg10.dtd">
<svg version="1.0" xmlns="http://www.w3.org/2000/svg" width="275px" height="183px" viewBox="0 0 2750 1830" preserveAspectRatio="xMidYMid meet">
<g id="layer101" fill="#0d293c" stroke="none">
 <path d="M0 915 l0 -915 1375 0 1375 0 0 915 0 915 -1375 0 -1375 0 0 -915z"/>
 </g>
<g id="layer102" fill="#1a324a" stroke="none">
 <path d="M0 915 l0 -915 1375 0 1375 0 0 915 0 915 -1375 0 -1375 0 0 -915z m1434 727 c2 -4 -4 -8 -14 -8 -10 0 -16 4 -14 8 3 4 9 8 14 8 5 0 11 -4 14 -8z m-1077 -19 c-4 -3 -7 0 -7 7 0 7 3 10 7 7 3 -4 3 -10 0 -14z m1003 -46 c0 -2 -10 -12 -22 -23 l-23 -19 19 23 c18 21 26 27 26 19z m-1133 -34 c-4 -3 -7 0 -7 7 0 7 3 10 7 7 3 -4 3 -10 0 -14z m1043 -66 c0 -2 -10 -12 -22 -23 l-23 -19 19 23 c18 21 26 27 26 19z m385 -7 c3 -5 4 -10 1 -10 -3 0 -8 5 -11 10 -3 6 -4 10 -1 10 3 0 8 -4 11 -10z m-235 -24 c0 -3 -5 -8 -12 -12 -7 -4 -8 -3 -4 4 7 12 16 16 16 8z m55 -26 c3 -5 4 -10 1 -10 -3 0 -8 5 -11 10 -3 6 -4 10 -1 10 3 0 8 -4 11 -10z m270 -20 c3 -5 4 -10 1 -10 -3 0 -8 5 -11 10 -3 6 -4 10 -1 10 3 0 8 -4 11 -10z m-555 -13 c0 -2 -10 -12 -22 -23 l-23 -19 19 23 c18 21 26 27 26 19z m-923 -24 c-4 -3 -7 0 -7 7 0 7 3 10 7 7 3 -4 3 -10 0 -14z m1254 0 c13 -16 12 -17 -3 -4 -10 7 -18 15 -18 17 0 8 8 3 21 -13z m-191 3 c0 -2 -8 -10 -17 -17 -16 -13 -17 -12 -4 4 13 16 21 21 21 13z m-583 -63 c-4 -3 -7 0 -7 7 0 7 3 10 7 7 3 -4 3 -10 0 -14z m503 -7 c0 -3 -5 -8 -12 -12 -7 -4 -8 -3 -4 4 7 12 16 16 16 8z m-163 -53 c-4 -3 -7 0 -7 7 0 7 3 10 7 7 3 -4 3 -10 0 -14z m68 7 c3 -5 4 -10 1 -10 -3 0 -8 5 -11 10 -3 6 -4 10 -1 10 3 0 8 -4 11 -10z m-428 -27 c-4 -3 -7 0 -7 7 0 7 3 10 7 7 3 -4 3 -10 0 -14z m928 -23 c3 -5 4 -10 1 -10 -3 0 -8 5 -11 10 -3 6 -4 10 -1 10 3 0 8 -4 11 -10z m-1348 -17 c-4 -3 -7 0 -7 7 0 7 3 10 7 7 3 -4 3 -10 0 -14z m418 -43 c3 -5 4 -10 1 -10 -3 0 -8 5 -11 10 -3 6 -4 10 -1 10 3 0 8 -4 11 -10z m-45 -4 c0 -3 -5 -8 -12 -12 -7 -4 -8 -3 -4 4 7 12 16 16 16 8z m1055 -36 c3 -5 4 -10 1 -10 -3 0 -8 5 -11 10 -3 6 -4 10 -1 10 3 0 8 -4 11 -10z m-1005 -4 c0 -3 -5 -8 -12 -12 -7 -4 -8 -3 -4 4 7 12 16 16 16 8z"/>
 </g>
<g id="layer103" fill="#2d3e52" stroke="none">
 <path d="M0 915 l0 -915 1375 0 1375 0 0 915 0 914 -114 0 c-100 0 -115 -2 -119 -17 -4 -16 -5 -16 -6 1 -2 25 -115 25 -130 0 -10 -17 -10 -17 -11 0 0 16 -19 17 -264 17 l-265 0 -4 -22 -4 -23 -2 23 -1 22 -357 0 c-238 -1 -361 -5 -370 -12 -9 -7 -13 -7 -13 1 0 16 -788 15 -809 -2 -12 -9 -13 -9 -7 1 6 9 -24 12 -133 12 l-141 0 0 -915z m115 895 c3 -5 4 -10 1 -10 -3 0 -8 5 -11 10 -3 6 -4 10 -1 10 3 0 8 -4 11 -10z m1155 -4 c0 -3 -5 -8 -12 -12 -7 -4 -8 -3 -4 4 7 12 16 16 16 8z m1350 -111 l-7 -100 -1 110 c-1 62 2 105 7 100 5 -6 5 -55 1 -110z m-2315 95 c3 -5 4 -10 1 -10 -3 0 -8 5 -11 10 -3 6 -4 10 -1 10 3 0 8 -4 11 -10z m-170 -10 c3 -5 4 -10 1 -10 -3 0 -8 5 -11 10 -3 6 -4 10 -1 10 3 0 8 -4 11 -10z m282 -12 c-3 -8 -6 -5 -6 6 -1 11 2 17 5 13 3 -3 4 -12 1 -19z m550 0 c-3 -8 -6 -5 -6 6 -1 11 2 17 5 13 3 -3 4 -12 1 -19z m106 2 c-3 -12 -8 -19 -11 -16 -5 6 5 36 12 36 2 0 2 -9 -1 -20z m177 6 c0 -3 -5 -8 -12 -12 -7 -4 -8 -3 -4 4 7 12 16 16 16 8z m1257 -33 c-3 -10 -5 -4 -5 12 0 17 2 24 5 18 2 -7 2 -21 0 -30z m-2190 10 c-4 -3 -7 0 -7 7 0 7 3 10 7 7 3 -4 3 -10 0 -14z m-156 -10 c13 -16 12 -17 -3 -4 -10 7 -18 15 -18 17 0 8 8 3 21 -13z m2226 -15 c-3 -7 -5 -2 -5 12 0 14 2 19 5 13 2 -7 2 -19 0 -25z m-1157 18 c0 -3 -5 -8 -12 -12 -7 -4 -8 -3 -4 4 7 12 16 16 16 8z m-903 -28 c-3 -8 -6 -5 -6 6 -1 11 2 17 5 13 3 -3 4 -12 1 -19z m730 5 c-4 -3 -7 0 -7 7 0 7 3 10 7 7 3 -4 3 -10 0 -14z m770 -15 c-3 -7 -5 -2 -5 12 0 14 2 19 5 13 2 -7 2 -19 0 -25z m-1642 2 c3 -5 4 -10 1 -10 -3 0 -8 5 -11 10 -3 6 -4 10 -1 10 3 0 8 -4 11 -10z m1025 6 c0 -2 -8 -10 -17 -17 -16 -13 -17 -12 -4 4 13 16 21 21 21 13z m-803 -28 c-3 -8 -6 -5 -6 6 -1 11 2 17 5 13 3 -3 4 -12 1 -19z m570 -10 c-3 -7 -5 -2 -5 12 0 14 2 19 5 13 2 -7 2 -19 0 -25z m70 15 c-4 -3 -7 0 -7 7 0 7 3 10 7 7 3 -4 3 -10 0 -14z m1450 0 c-4 -3 -7 0 -7 7 0 7 3 10 7 7 3 -4 3 -10 0 -14z m-2160 -10 c-4 -3 -7 0 -7 7 0 7 3 10 7 7 3 -4 3 -10 0 -14z m700 -20 c-4 -3 -7 0 -7 7 0 7 3 10 7 7 3 -4 3 -10 0 -14z m140 -5 c-3 -8 -6 -5 -6 6 -1 11 2 17 5 13 3 -3 4 -12 1 -19z m-970 -10 c-3 -8 -6 -5 -6 6 -1 11 2 17 5 13 3 -3 4 -12 1 -19z m140 5 c-4 -3 -7 0 -7 7 0 7 3 10 7 7 3 -4 3 -10 0 -14z m2050 -5 c-3 -8 -6 -5 -6 6 -1 11 2 17 5 13 3 -3 4 -12 1 -19z m90 5 c-4 -3 -7 0 -7 7 0 7 3 10 7 7 3 -4 3 -10 0 -14z m-670 -15 c-3 -8 -6 -5 -6 6 -1 11 2 17 5 13 3 -3 4 -12 1 -19z m-352 -24 l40 -36 -43 32 c-37 28 -45 30 -60 19 -15 -13 -16 -12 -3 4 18 23 20 22 66 -19z m-1108 9 c-4 -3 -7 0 -7 7 0 7 3 10 7 7 3 -4 3 -10 0 -14z m40 -15 c-3 -8 -6 -5 -6 6 -1 11 2 17 5 13 3 -3 4 -12 1 -19z m590 -10 c-3 -7 -5 -2 -5 12 0 14 2 19 5 13 2 -7 2 -19 0 -25z m180 10 c-3 -8 -6 -5 -6 6 -1 11 2 17 5 13 3 -3 4 -12 1 -19z m1310 5 c-4 -3 -7 0 -7 7 0 7 3 10 7 7 3 -4 3 -10 0 -14z m-2260 -15 c-3 -8 -6 -5 -6 6 -1 11 2 17 5 13 3 -3 4 -12 1 -19z m150 -10 c-3 -8 -6 -5 -6 6 -1 11 2 17 5 13 3 -3 4 -12 1 -19z m650 5 c-4 -3 -7 0 -7 7 0 7 3 10 7 7 3 -4 3 -10 0 -14z m373 14 c0 -2 -19 -21 -42 -42 l-43 -40 40 43 c36 39 45 47 45 39z m-233 -39 c-3 -8 -6 -5 -6 6 -1 11 2 17 5 13 3 -3 4 -12 1 -19z m1250 0 c-3 -8 -6 -5 -6 6 -1 11 2 17 5 13 3 -3 4 -12 1 -19z m60 5 c-4 -3 -7 0 -7 7 0 7 3 10 7 7 3 -4 3 -10 0 -14z m140 0 c-4 -3 -7 0 -7 7 0 7 3 10 7 7 3 -4 3 -10 0 -14z m-1076 -10 c13 -16 12 -17 -3 -4 -10 7 -18 15 -18 17 0 8 8 3 21 -13z m276 -15 c-3 -7 -5 -2 -5 12 0 14 2 19 5 13 2 -7 2 -19 0 -25z m-1580 0 c-3 -8 -6 -5 -6 6 -1 11 2 17 5 13 3 -3 4 -12 1 -19z m1348 -18 c10 -11 16 -20 13 -20 -3 0 -13 9 -23 20 -10 11 -16 20 -13 20 3 0 13 -9 23 -20z m879 -14 c-3 -15 -8 -25 -11 -23 -2 3 -1 17 3 31 3 15 8 25 11 23 2 -3 1 -17 -3 -31z m143 17 c-4 -3 -7 0 -7 7 0 7 3 10 7 7 3 -4 3 -10 0 -14z m-1450 -15 c-3 -8 -6 -5 -6 6 -1 11 2 17 5 13 3 -3 4 -12 1 -19z m-910 -10 c-3 -8 -6 -5 -6 6 -1 11 2 17 5 13 3 -3 4 -12 1 -19z m2350 -5 c-4 -3 -7 0 -7 7 0 7 3 10 7 7 3 -4 3 -10 0 -14z m-966 -10 c13 -16 12 -17 -3 -4 -10 7 -18 15 -18 17 0 8 8 3 21 -13z m796 -5 c-3 -8 -6 -5 -6 6 -1 11 2 17 5 13 3 -3 4 -12 1 -19z m-1280 -20 c-3 -7 -5 -2 -5 12 0 14 2 19 5 13 2 -7 2 -19 0 -25z m153 29 c0 -2 -15 -16 -32 -33 l-33 -29 29 33 c28 30 36 37 36 29z m507 -29 c-3 -7 -5 -2 -5 12 0 14 2 19 5 13 2 -7 2 -19 0 -25z m-1550 -10 c-3 -8 -6 -5 -6 6 -1 11 2 17 5 13 3 -3 4 -12 1 -19z m1414 5 c13 -16 12 -17 -3 -4 -10 7 -18 15 -18 17 0 8 8 3 21 -13z m916 0 c-4 -3 -7 0 -7 7 0 7 3 10 7 7 3 -4 3 -10 0 -14z m-1147 -6 c0 -2 -12 -14 -27 -28 l-28 -24 24 28 c23 25 31 32 31 24z m-303 -29 c-3 -8 -6 -5 -6 6 -1 11 2 17 5 13 3 -3 4 -12 1 -19z m578 2 c10 -11 16 -20 13 -20 -3 0 -13 9 -23 20 -10 11 -16 20 -13 20 3 0 13 -9 23 -20z m859 -14 c-3 -15 -8 -25 -11 -23 -2 3 -1 17 3 31 3 15 8 25 11 23 2 -3 1 -17 -3 -31z m-2307 2 c-3 -8 -6 -5 -6 6 -1 11 2 17 5 13 3 -3 4 -12 1 -19z m1218 2 c10 -11 16 -20 13 -20 -3 0 -13 9 -23 20 -10 11 -16 20 -13 20 3 0 13 -9 23 -20z m-265 -13 c0 -2 -17 -19 -37 -38 l-38 -34 34 38 c33 34 41 42 41 34z m541 -14 c13 -16 12 -17 -3 -4 -17 13 -22 21 -14 21 2 0 10 -8 17 -17z m36 0 c-4 -3 -7 0 -7 7 0 7 3 10 7 7 3 -4 3 -10 0 -14z m-670 -15 c-3 -8 -6 -5 -6 6 -1 11 2 17 5 13 3 -3 4 -12 1 -19z m243 19 c0 -2 -17 -19 -37 -38 l-38 -34 34 38 c33 34 41 42 41 34z m-1093 -29 c-3 -8 -6 -5 -6 6 -1 11 2 17 5 13 3 -3 4 -12 1 -19z m1258 -8 c10 -11 16 -20 13 -20 -3 0 -13 9 -23 20 -10 11 -16 20 -13 20 3 0 13 -9 23 -20z m1022 3 c-4 -3 -7 0 -7 7 0 7 3 10 7 7 3 -4 3 -10 0 -14z m-1440 -25 c-3 -8 -6 -5 -6 6 -1 11 2 17 5 13 3 -3 4 -12 1 -19z m-830 -10 c-3 -8 -6 -5 -6 6 -1 11 2 17 5 13 3 -3 4 -12 1 -19z m370 5 c-4 -3 -7 0 -7 7 0 7 3 10 7 7 3 -4 3 -10 0 -14z m110 0 c-4 -3 -7 0 -7 7 0 7 3 10 7 7 3 -4 3 -10 0 -14z m1780 -5 c-3 -8 -6 -5 -6 6 -1 11 2 17 5 13 3 -3 4 -12 1 -19z m-1750 -15 c-4 -3 -7 0 -7 7 0 7 3 10 7 7 3 -4 3 -10 0 -14z m458 -23 c-21 -22 -40 -38 -43 -36 -4 4 69 75 78 76 2 0 -13 -18 -35 -40z m320 20 c10 -11 16 -20 13 -20 -3 0 -13 9 -23 20 -10 11 -16 20 -13 20 3 0 13 -9 23 -20z m-908 -7 c-4 -3 -7 0 -7 7 0 7 3 10 7 7 3 -4 3 -10 0 -14z m90 0 c-4 -3 -7 0 -7 7 0 7 3 10 7 7 3 -4 3 -10 0 -14z m383 13 c0 -3 -5 -8 -12 -12 -7 -4 -8 -3 -4 4 7 12 16 16 16 8z m897 -13 c-4 -3 -7 0 -7 7 0 7 3 10 7 7 3 -4 3 -10 0 -14z m180 -10 c-4 -3 -7 0 -7 7 0 7 3 10 7 7 3 -4 3 -10 0 -14z m320 -5 c-3 -8 -6 -5 -6 6 -1 11 2 17 5 13 3 -3 4 -12 1 -19z m-2240 -10 c-3 -8 -6 -5 -6 6 -1 11 2 17 5 13 3 -3 4 -12 1 -19z m510 -5 c-4 -3 -7 0 -7 7 0 7 3 10 7 7 3 -4 3 -10 0 -14z m318 7 c3 -5 4 -10 1 -10 -3 0 -8 5 -11 10 -3 6 -4 10 -1 10 3 0 8 -4 11 -10z m-448 -17 c-4 -3 -7 0 -7 7 0 7 3 10 7 7 3 -4 3 -10 0 -14z m70 0 c-4 -3 -7 0 -7 7 0 7 3 10 7 7 3 -4 3 -10 0 -14z m873 -8 c13 -14 21 -25 18 -25 -2 0 -15 11 -28 25 -13 14 -21 25 -18 25 2 0 15 -11 28 -25z m407 8 c-4 -3 -7 0 -7 7 0 7 3 10 7 7 3 -4 3 -10 0 -14z m200 0 c-4 -3 -7 0 -7 7 0 7 3 10 7 7 3 -4 3 -10 0 -14z m-1130 -15 c-3 -8 -6 -5 -6 6 -1 11 2 17 5 13 3 -3 4 -12 1 -19z m1430 5 c-4 -3 -7 0 -7 7 0 7 3 10 7 7 3 -4 3 -10 0 -14z m-2209 -58 c0 -16 -2 -15 -8 5 -4 14 -8 34 -8 45 0 16 2 15 8 -5 4 -14 8 -34 8 -45z m871 50 c7 3 8 0 5 -9 -8 -20 -7 -20 -30 6 -14 17 -15 20 -2 9 9 -7 22 -10 27 -6z m-502 -17 c-3 -8 -6 -5 -6 6 -1 11 2 17 5 13 3 -3 4 -12 1 -19z m47 -12 c-3 -15 -8 -25 -11 -23 -2 3 -1 17 3 31 3 15 8 25 11 23 2 -3 1 -17 -3 -31z m1283 17 c-4 -3 -7 0 -7 7 0 7 3 10 7 7 3 -4 3 -10 0 -14z m220 -10 c-4 -3 -7 0 -7 7 0 7 3 10 7 7 3 -4 3 -10 0 -14z m280 0 c-4 -3 -7 0 -7 7 0 7 3 10 7 7 3 -4 3 -10 0 -14z m-1430 -25 c-3 -8 -6 -5 -6 6 -1 11 2 17 5 13 3 -3 4 -12 1 -19z m578 2 c10 -11 16 -20 13 -20 -3 0 -13 9 -23 20 -10 11 -16 20 -13 20 3 0 13 -9 23 -20z m-968 -7 c-4 -3 -7 0 -7 7 0 7 3 10 7 7 3 -4 3 -10 0 -14z m130 0 c-4 -3 -7 0 -7 7 0 7 3 10 7 7 3 -4 3 -10 0 -14z m-240 -10 c-4 -3 -7 0 -7 7 0 7 3 10 7 7 3 -4 3 -10 0 -14z m1660 0 c-4 -3 -7 0 -7 7 0 7 3 10 7 7 3 -4 3 -10 0 -14z m260 0 c-4 -3 -7 0 -7 7 0 7 3 10 7 7 3 -4 3 -10 0 -14z m-1787 -17 c0 -8 11 -23 23 -33 l24 -18 -26 -20 c-26 -19 -26 -19 -8 2 16 19 16 21 -3 38 -20 18 -21 18 -43 -3 -13 -12 -27 -22 -31 -22 -5 0 3 9 18 21 14 11 26 27 26 35 0 8 5 14 10 14 6 0 10 -6 10 -14z m117 -3 c-4 -3 -7 0 -7 7 0 7 3 10 7 7 3 -4 3 -10 0 -14z m-510 -15 c-3 -8 -6 -5 -6 6 -1 11 2 17 5 13 3 -3 4 -12 1 -19z m750 5 c-4 -3 -7 0 -7 7 0 7 3 10 7 7 3 -4 3 -10 0 -14z m633 -8 c13 -14 21 -25 18 -25 -2 0 -15 11 -28 25 -13 14 -21 25 -18 25 2 0 15 -11 28 -25z m787 3 c-3 -8 -6 -5 -6 6 -1 11 2 17 5 13 3 -3 4 -12 1 -19z m-1920 -5 c-4 -3 -7 0 -7 7 0 7 3 10 7 7 3 -4 3 -10 0 -14z m1680 0 c-4 -3 -7 0 -7 7 0 7 3 10 7 7 3 -4 3 -10 0 -14z m-270 -20 c-4 -3 -7 0 -7 7 0 7 3 10 7 7 3 -4 3 -10 0 -14z m500 -10 c-4 -3 -7 0 -7 7 0 7 3 10 7 7 3 -4 3 -10 0 -14z m-2150 -20 c-4 -3 -7 0 -7 7 0 7 3 10 7 7 3 -4 3 -10 0 -14z m1408 7 c3 -5 4 -10 1 -10 -3 0 -8 5 -11 10 -3 6 -4 10 -1 10 3 0 8 -4 11 -10z m-1050 -10 c3 -5 4 -10 1 -10 -3 0 -8 5 -11 10 -3 6 -4 10 -1 10 3 0 8 -4 11 -10z m162 -7 c-4 -3 -7 0 -7 7 0 7 3 10 7 7 3 -4 3 -10 0 -14z m-340 1 c-3 -3 -12 -4 -19 -1 -8 3 -5 6 6 6 11 1 17 -2 13 -5z m43 -4 c0 -5 -5 -10 -11 -10 -5 0 -7 5 -4 10 3 6 8 10 11 10 2 0 4 -4 4 -10z m1367 3 c-4 -3 -10 -3 -14 0 -3 4 0 7 7 7 7 0 10 -3 7 -7z m440 1 c-3 -3 -12 -4 -19 -1 -8 3 -5 6 6 6 11 1 17 -2 13 -5z m-1470 -11 c-4 -3 -10 -3 -14 0 -3 4 0 7 7 7 7 0 10 -3 7 -7z"/>
 </g>
<g id="layer104" fill="#354b60" stroke="none">
 <path d="M0 915 l0 -915 1375 0 1375 0 0 915 0 915 -59 0 -58 0 -7 -52 c-3 -29 -6 -80 -6 -114 0 -45 -16 -117 -61 -270 -33 -115 -64 -224 -69 -242 -4 -19 -10 -36 -13 -38 -4 -4 -21 111 -31 206 -14 128 -19 159 -27 154 -5 -3 -8 7 -8 23 1 17 3 21 6 11 2 -10 8 -18 12 -18 8 0 48 148 62 230 5 30 11 67 14 83 4 27 4 27 -55 27 -46 0 -61 -4 -69 -17 -10 -17 -10 -17 -11 0 0 16 -19 17 -264 17 l-265 0 -4 -27 -4 -28 -2 28 -1 27 -268 0 c-268 0 -269 0 -290 -23 -12 -13 -22 -27 -22 -32 0 -4 -16 -27 -35 -51 -20 -24 -35 -54 -35 -68 0 -14 -4 -35 -9 -48 -5 -13 -14 -47 -20 -75 -28 -133 -34 -160 -42 -187 -13 -43 -2 -45 29 -6 15 19 38 46 52 61 14 14 52 56 85 94 33 37 79 88 102 113 l42 45 57 -44 c31 -24 69 -53 83 -63 14 -11 40 -31 58 -45 17 -15 56 -44 87 -66 30 -22 57 -45 60 -52 3 -7 -1 -65 -9 -130 -22 -176 -27 -162 58 -166 l72 -3 -72 -2 -72 -2 -76 93 c-135 164 -205 252 -218 269 -13 18 -31 3 -211 -164 l-60 -56 -37 29 c-21 16 -39 26 -42 22 -2 -5 -9 -35 -16 -68 -7 -33 -15 -71 -18 -85 -6 -25 -20 64 -43 275 -6 54 -14 115 -18 134 -6 25 1 59 25 135 18 56 39 113 48 128 8 14 15 29 15 32 0 3 -25 6 -56 6 -42 0 -60 -4 -70 -17 -13 -17 -13 -17 -14 0 0 16 -21 17 -330 17 -181 -1 -332 -5 -334 -9 -3 -5 3 -16 14 -26 11 -10 23 -34 26 -54 4 -20 10 -40 14 -46 4 -5 14 -38 23 -71 14 -57 14 -74 -5 -220 -11 -88 -23 -195 -27 -239 -6 -70 -8 -76 -14 -45 -5 19 -15 63 -23 98 -8 34 -26 115 -40 180 -13 64 -29 140 -35 167 -6 28 -14 66 -18 85 -4 19 -23 56 -42 82 -19 26 -42 58 -52 72 -15 21 -26 26 -62 26 l-45 0 0 -915z m417 838 c-3 -10 -5 -2 -5 17 0 19 2 27 5 18 2 -10 2 -26 0 -35z m550 -10 c-3 -10 -5 -2 -5 17 0 19 2 27 5 18 2 -10 2 -26 0 -35z m1420 -25 c-2 -13 -4 -5 -4 17 -1 22 1 32 4 23 2 -10 2 -28 0 -40z m-566 -68 c-10 -44 -10 -44 -6 15 5 77 7 86 12 55 2 -14 -1 -45 -6 -70z m-1414 33 c-3 -10 -5 -4 -5 12 0 17 2 24 5 18 2 -7 2 -21 0 -30z m570 -10 c-3 -10 -5 -4 -5 12 0 17 2 24 5 18 2 -7 2 -21 0 -30z m1420 -40 c-3 -10 -5 -2 -5 17 0 19 2 27 5 18 2 -10 2 -26 0 -35z m-2000 -35 c-3 -7 -5 -2 -5 12 0 14 2 19 5 13 2 -7 2 -19 0 -25z m590 -5 c-3 -10 -5 -4 -5 12 0 17 2 24 5 18 2 -7 2 -21 0 -30z m820 -50 c-3 -10 -5 -2 -5 17 0 19 2 27 5 18 2 -10 2 -26 0 -35z m600 10 c-3 -10 -5 -4 -5 12 0 17 2 24 5 18 2 -7 2 -21 0 -30z m-1672 -94 c30 -120 31 -106 -13 -248 l-16 -54 27 -21 c26 -21 27 -23 10 -38 -34 -28 -43 -29 -74 -7 l-31 22 26 21 25 21 -15 60 c-9 33 -20 79 -26 102 -10 37 -7 57 18 148 15 58 31 105 35 105 4 0 19 -50 34 -111z m1062 -1 c-2 -13 -4 -5 -4 17 -1 22 1 32 4 23 2 -10 2 -28 0 -40z m-10 -70 c-3 -7 -5 -2 -5 12 0 14 2 19 5 13 2 -7 2 -19 0 -25z m250 -50 c-3 -8 -6 -5 -6 6 -1 11 2 17 5 13 3 -3 4 -12 1 -19z m160 0 c-3 -8 -6 -5 -6 6 -1 11 2 17 5 13 3 -3 4 -12 1 -19z m-1580 -15 c-4 -3 -7 0 -7 7 0 7 3 10 7 7 3 -4 3 -10 0 -14z m170 -10 c-4 -3 -7 0 -7 7 0 7 3 10 7 7 3 -4 3 -10 0 -14z m1240 -10 c-4 -3 -7 0 -7 7 0 7 3 10 7 7 3 -4 3 -10 0 -14z m180 -5 c-3 -8 -6 -5 -6 6 -1 11 2 17 5 13 3 -3 4 -12 1 -19z m-1600 -10 c-3 -8 -6 -5 -6 6 -1 11 2 17 5 13 3 -3 4 -12 1 -19z m190 -10 c-3 -8 -6 -5 -6 6 -1 11 2 17 5 13 3 -3 4 -12 1 -19z m1220 -15 c-4 -3 -7 0 -7 7 0 7 3 10 7 7 3 -4 3 -10 0 -14z m200 0 c-4 -3 -7 0 -7 7 0 7 3 10 7 7 3 -4 3 -10 0 -14z m-1620 -10 c-4 -3 -7 0 -7 7 0 7 3 10 7 7 3 -4 3 -10 0 -14z m210 -15 c-3 -8 -6 -5 -6 6 -1 11 2 17 5 13 3 -3 4 -12 1 -19z m1200 -5 c-4 -3 -7 0 -7 7 0 7 3 10 7 7 3 -4 3 -10 0 -14z m220 -5 c-3 -8 -6 -5 -6 6 -1 11 2 17 5 13 3 -3 4 -12 1 -19z m-1643 -22 c-3 -15 -8 -25 -11 -23 -2 3 -1 17 3 31 3 15 8 25 11 23 2 -3 1 -17 -3 -31z m233 -8 c-3 -8 -6 -5 -6 6 -1 11 2 17 5 13 3 -3 4 -12 1 -19z m1180 0 c-3 -8 -6 -5 -6 6 -1 11 2 17 5 13 3 -3 4 -12 1 -19z m240 -10 c-3 -8 -6 -5 -6 6 -1 11 2 17 5 13 3 -3 4 -12 1 -19z m-1410 -25 c-4 -3 -7 0 -7 7 0 7 3 10 7 7 3 -4 3 -10 0 -14z m1160 0 c-4 -3 -7 0 -7 7 0 7 3 10 7 7 3 -4 3 -10 0 -14z m-1420 -15 c-3 -8 -6 -5 -6 6 -1 11 2 17 5 13 3 -3 4 -12 1 -19z m1680 0 c-3 -8 -6 -5 -6 6 -1 11 2 17 5 13 3 -3 4 -12 1 -19z m-1410 -20 c-3 -8 -6 -5 -6 6 -1 11 2 17 5 13 3 -3 4 -12 1 -19z m1140 0 c-3 -8 -6 -5 -6 6 -1 11 2 17 5 13 3 -3 4 -12 1 -19z m-1420 -15 c-4 -3 -7 0 -7 7 0 7 3 10 7 7 3 -4 3 -10 0 -14z m1700 0 c-4 -3 -7 0 -7 7 0 7 3 10 7 7 3 -4 3 -10 0 -14z m-1384 -34 c21 0 21 -1 2 -8 -21 -9 -35 3 -34 29 1 11 3 10 6 -2 2 -10 14 -18 26 -19z m1094 14 c-4 -3 -7 0 -7 7 0 7 3 10 7 7 3 -4 3 -10 0 -14z m-1417 -8 c0 -8 -4 -15 -10 -15 -5 0 -7 7 -4 15 4 8 8 15 10 15 2 0 4 -7 4 -15z m1743 -6 c21 0 21 -1 2 -9 -31 -13 -35 -12 -34 13 0 12 3 16 6 10 2 -7 14 -13 26 -14z m177 11 c0 -6 -30 -9 -72 -8 l-73 2 70 6 c39 4 71 7 73 8 1 1 2 -2 2 -8z m-1997 -7 c-23 -2 -64 -2 -90 0 -26 2 -7 3 42 3 50 0 71 -1 48 -3z m464 1 c-3 -3 -12 -4 -19 -1 -8 3 -5 6 6 6 11 1 17 -2 13 -5z m986 -1 c-7 -2 -19 -2 -25 0 -7 3 -2 5 12 5 14 0 19 -2 13 -5z m34 -10 c-4 -3 -10 -3 -14 0 -3 4 0 7 7 7 7 0 10 -3 7 -7z"/>
 </g>
<g id="layer105" fill="#00a751" stroke="none">
 <path d="M0 915 l0 -915 1375 0 1375 0 0 915 0 915 -59 0 -58 0 -7 -52 c-3 -29 -6 -80 -6 -114 0 -44 -19 -127 -73 -320 l-74 -259 -84 -6 c-46 -3 -94 -9 -105 -13 -19 -6 -23 0 -38 56 -9 35 -23 88 -31 118 -9 30 -33 122 -55 204 -21 81 -41 150 -43 152 -3 4 -66 -213 -128 -446 -11 -41 -21 -75 -22 -76 -1 0 -54 2 -117 5 l-114 6 -141 173 c-78 95 -146 177 -152 183 -8 8 -48 -23 -140 -104 l-129 -115 -36 30 c-20 16 -38 25 -41 21 -2 -4 -12 -49 -22 -99 l-17 -91 -91 -6 c-51 -3 -98 -7 -106 -9 -15 -3 -18 6 -57 157 -14 55 -29 106 -33 113 -4 8 -18 -28 -34 -85 l-27 -98 26 -21 c23 -19 24 -21 7 -36 -34 -28 -43 -29 -74 -7 l-31 22 26 21 26 21 -27 98 c-14 54 -29 94 -33 90 -4 -4 -19 -53 -35 -108 -51 -185 -42 -168 -84 -161 -20 3 -70 6 -112 6 l-76 0 -63 288 c-34 158 -66 297 -71 309 -4 11 -29 51 -55 87 -46 64 -49 66 -91 66 l-43 0 0 -915z"/>
 <path d="M290 1822 c0 -4 6 -17 14 -28 8 -11 26 -60 41 -109 15 -50 30 -94 34 -98 7 -7 31 174 31 226 0 14 -10 17 -60 17 -33 0 -60 -3 -60 -8z"/>
 <path d="M971 1793 c1 -64 24 -219 30 -208 3 6 19 53 34 105 16 52 34 102 42 111 21 26 16 29 -47 29 l-60 0 1 -37z"/>
 <path d="M1246 1766 c-25 -35 -50 -74 -55 -87 -14 -33 -84 -349 -79 -355 3 -2 71 70 152 161 81 91 150 165 154 165 4 0 86 -61 182 -135 96 -74 176 -129 177 -122 3 14 53 424 53 432 0 3 -121 5 -269 5 l-269 0 -46 -64z"/>
 <path d="M2387 1823 c-3 -5 4 -73 14 -153 10 -80 18 -153 19 -162 0 -10 4 -18 8 -18 8 0 63 223 76 308 l6 32 -60 0 c-32 0 -61 -3 -63 -7z"/>
 </g>
<g id="layer106" fill="#e84b3c" stroke="none">
 <path d="M0 915 l0 -915 1375 0 1375 0 0 915 0 915 -59 0 -58 0 -7 -52 c-3 -29 -6 -80 -6 -114 0 -44 -19 -127 -73 -320 l-74 -259 -84 -6 c-46 -3 -94 -9 -105 -13 -19 -6 -23 0 -38 56 -9 35 -23 88 -31 118 -9 30 -33 122 -55 204 -21 81 -41 150 -43 152 -3 4 -66 -213 -128 -446 -11 -41 -21 -75 -22 -76 -1 0 -54 2 -117 5 l-114 6 -141 173 c-78 95 -146 177 -152 183 -8 8 -48 -23 -140 -104 l-129 -115 -36 30 c-20 16 -38 25 -41 21 -2 -4 -12 -49 -22 -99 l-17 -91 -91 -6 c-51 -3 -98 -7 -106 -9 -15 -3 -18 6 -57 157 -14 55 -29 106 -33 113 -4 8 -18 -28 -34 -85 l-27 -98 26 -21 c23 -19 24 -21 7 -36 -34 -28 -43 -29 -74 -7 l-31 22 26 21 26 21 -27 98 c-14 54 -29 94 -33 90 -4 -4 -19 -53 -35 -108 -51 -185 -42 -168 -84 -161 -20 3 -70 6 -112 6 l-76 0 -63 288 c-34 158 -66 297 -71 309 -4 11 -29 51 -55 87 -46 64 -49 66 -91 66 l-43 0 0 -915z m710 85 c0 -27 4 -40 14 -40 7 0 20 -8 27 -17 11 -15 11 -16 -1 -5 -32 28 -37 14 -39 -134 -1 -145 -1 -147 24 -170 14 -13 25 -28 25 -34 0 -6 -12 2 -26 17 l-25 28 4 -49 c3 -30 1 -43 -4 -35 -5 8 -9 59 -9 113 l0 100 -32 -30 c-27 -24 -29 -24 -10 -3 33 38 40 72 35 192 -2 68 0 107 7 107 5 0 10 -18 10 -40z m81 -97 c13 -16 12 -17 -3 -4 -10 7 -18 15 -18 17 0 8 8 3 21 -13z m-114 -40 c-4 -3 -10 -3 -14 0 -3 4 0 7 7 7 7 0 10 -3 7 -7z m-52 -30 c-15 -15 -35 -43 -46 -63 -10 -19 -18 -31 -19 -26 0 16 50 95 68 105 27 16 27 13 -3 -16z m192 -45 c-2 -13 -4 -3 -4 22 0 25 2 35 4 23 2 -13 2 -33 0 -45z m-52 -8 c3 -5 4 -10 1 -10 -3 0 -8 5 -11 10 -3 6 -4 10 -1 10 3 0 8 -4 11 -10z m55 -48 c0 -12 -3 -12 -15 -2 -8 7 -15 13 -15 15 0 1 7 2 15 2 8 0 15 -7 15 -15z m-47 -172 c3 -11 1 -18 -4 -14 -5 3 -9 12 -9 20 0 20 7 17 13 -6z m-112 -33 c-10 -9 -11 -8 -5 6 3 10 9 15 12 12 3 -3 0 -11 -7 -18z m66 -4 c-4 -3 -7 0 -7 7 0 7 3 10 7 7 3 -4 3 -10 0 -14z m72 -45 c1 -5 -3 -8 -7 -8 -4 0 -8 12 -9 28 -1 23 -1 24 7 7 5 -11 9 -23 9 -27z m-152 15 c-4 -3 -7 0 -7 7 0 7 3 10 7 7 3 -4 3 -10 0 -14z m70 0 c-4 -3 -7 0 -7 7 0 7 3 10 7 7 3 -4 3 -10 0 -14z m44 0 c13 -16 12 -17 -3 -4 -10 7 -18 15 -18 17 0 8 8 3 21 -13z m-95 -161 c-5 -5 -26 59 -25 77 0 9 7 -4 14 -29 8 -24 13 -46 11 -48z m51 51 c-4 -3 -7 0 -7 7 0 7 3 10 7 7 3 -4 3 -10 0 -14z m-13 -58 c-9 -14 -20 -22 -25 -19 -5 3 1 14 13 24 30 25 32 25 12 -5z"/>
 <path d="M290 1822 c0 -4 6 -17 14 -28 8 -11 26 -60 41 -109 15 -50 30 -94 34 -98 7 -7 31 174 31 226 0 14 -10 17 -60 17 -33 0 -60 -3 -60 -8z"/>
 <path d="M971 1793 c1 -64 24 -219 30 -208 3 6 19 53 34 105 16 52 34 102 42 111 21 26 16 29 -47 29 l-60 0 1 -37z"/>
 <path d="M1246 1766 c-25 -35 -50 -74 -55 -87 -14 -33 -84 -349 -79 -355 3 -2 71 70 152 161 81 91 150 165 154 165 4 0 86 -61 182 -135 96 -74 176 -129 177 -122 3 14 53 424 53 432 0 3 -121 5 -269 5 l-269 0 -46 -64z"/>
 <path d="M2387 1823 c-3 -5 4 -73 14 -153 10 -80 18 -153 19 -162 0 -10 4 -18 8 -18 8 0 63 223 76 308 l6 32 -60 0 c-32 0 -61 -3 -63 -7z"/>
 </g>
<g id="layer107" fill="#4ab672" stroke="none">
 <path d="M0 915 l0 -915 1375 0 1375 0 0 915 0 915 -59 0 -58 0 -7 -52 c-3 -29 -6 -80 -6 -114 0 -44 -19 -127 -73 -320 l-74 -259 -84 -6 c-46 -3 -94 -9 -105 -13 -20 -6 -23 0 -39 61 -9 37 -23 88 -30 113 -8 25 -17 60 -20 78 -9 46 -18 32 -45 -71 l-22 -88 22 -24 23 -24 -24 -20 c-30 -25 -31 -25 -63 0 l-27 21 22 24 22 24 -23 87 c-12 49 -26 92 -30 96 -4 5 -14 -18 -23 -50 -32 -123 -59 -218 -60 -219 -1 0 -54 2 -117 5 l-114 6 -141 173 c-78 95 -146 177 -152 183 -8 8 -48 -23 -140 -104 l-129 -115 -36 30 c-20 16 -38 25 -41 21 -2 -4 -12 -49 -22 -99 l-17 -91 -91 -6 c-51 -3 -98 -7 -106 -9 -15 -3 -18 6 -57 157 -14 55 -29 106 -33 113 -4 8 -18 -28 -34 -85 l-27 -98 26 -21 c23 -19 24 -21 7 -36 -34 -28 -43 -29 -74 -7 l-31 22 26 21 26 21 -27 98 c-14 54 -29 94 -33 90 -4 -4 -19 -53 -35 -108 -51 -185 -42 -168 -84 -161 -20 3 -70 6 -112 6 l-76 0 -63 288 c-34 158 -66 297 -71 309 -4 11 -29 51 -55 87 -46 64 -49 66 -91 66 l-43 0 0 -915z m710 85 c0 -27 4 -40 14 -40 7 0 20 -8 27 -17 11 -15 11 -16 -1 -5 -32 28 -37 14 -39 -134 -1 -145 -1 -147 24 -170 14 -13 25 -28 25 -34 0 -6 -12 2 -26 17 l-25 28 4 -49 c3 -30 1 -43 -4 -35 -5 8 -9 59 -9 113 l0 100 -32 -30 c-27 -24 -29 -24 -10 -3 33 38 40 72 35 192 -2 68 0 107 7 107 5 0 10 -18 10 -40z m81 -97 c13 -16 12 -17 -3 -4 -10 7 -18 15 -18 17 0 8 8 3 21 -13z m-114 -40 c-4 -3 -10 -3 -14 0 -3 4 0 7 7 7 7 0 10 -3 7 -7z m-52 -30 c-15 -15 -35 -43 -46 -63 -10 -19 -18 -31 -19 -26 0 16 50 95 68 105 27 16 27 13 -3 -16z m192 -45 c-2 -13 -4 -3 -4 22 0 25 2 35 4 23 2 -13 2 -33 0 -45z m-52 -8 c3 -5 4 -10 1 -10 -3 0 -8 5 -11 10 -3 6 -4 10 -1 10 3 0 8 -4 11 -10z m55 -48 c0 -12 -3 -12 -15 -2 -8 7 -15 13 -15 15 0 1 7 2 15 2 8 0 15 -7 15 -15z m-47 -172 c3 -11 1 -18 -4 -14 -5 3 -9 12 -9 20 0 20 7 17 13 -6z m-112 -33 c-10 -9 -11 -8 -5 6 3 10 9 15 12 12 3 -3 0 -11 -7 -18z m66 -4 c-4 -3 -7 0 -7 7 0 7 3 10 7 7 3 -4 3 -10 0 -14z m72 -45 c1 -5 -3 -8 -7 -8 -4 0 -8 12 -9 28 -1 23 -1 24 7 7 5 -11 9 -23 9 -27z m-152 15 c-4 -3 -7 0 -7 7 0 7 3 10 7 7 3 -4 3 -10 0 -14z m70 0 c-4 -3 -7 0 -7 7 0 7 3 10 7 7 3 -4 3 -10 0 -14z m44 0 c13 -16 12 -17 -3 -4 -10 7 -18 15 -18 17 0 8 8 3 21 -13z m-95 -161 c-5 -5 -26 59 -25 77 0 9 7 -4 14 -29 8 -24 13 -46 11 -48z m51 51 c-4 -3 -7 0 -7 7 0 7 3 10 7 7 3 -4 3 -10 0 -14z m-13 -58 c-9 -14 -20 -22 -25 -19 -5 3 1 14 13 24 30 25 32 25 12 -5z"/>
 <path d="M290 1822 c0 -4 6 -17 14 -28 8 -11 26 -60 41 -109 15 -50 30 -94 34 -98 7 -7 31 174 31 226 0 14 -10 17 -60 17 -33 0 -60 -3 -60 -8z"/>
 <path d="M971 1793 c1 -64 24 -219 30 -208 3 6 19 53 34 105 16 52 34 102 42 111 21 26 16 29 -47 29 l-60 0 1 -37z"/>
 <path d="M1246 1766 c-25 -35 -50 -74 -55 -87 -14 -33 -84 -349 -79 -355 3 -2 71 70 152 161 81 91 150 165 154 165 4 0 86 -61 182 -135 96 -74 176 -129 177 -122 3 14 53 424 53 432 0 3 -121 5 -269 5 l-269 0 -46 -64z"/>
 <path d="M2387 1823 c-3 -5 4 -73 14 -153 10 -80 18 -153 19 -162 0 -10 4 -18 8 -18 8 0 63 223 76 308 l6 32 -60 0 c-32 0 -61 -3 -63 -7z"/>
 </g>
<g id="layer108" fill="#66bd7d" stroke="none">
 <path d="M0 915 l0 -915 1375 0 1375 0 0 915 0 915 -59 0 -58 0 -7 -52 c-3 -29 -6 -80 -6 -114 0 -44 -19 -127 -73 -320 l-74 -259 -84 -6 c-46 -3 -94 -9 -105 -13 -20 -6 -23 0 -39 61 -9 37 -23 88 -30 113 -8 25 -17 60 -20 78 -9 46 -18 32 -45 -71 l-22 -88 22 -24 23 -24 -24 -20 c-30 -25 -31 -25 -63 0 l-27 21 22 24 22 24 -23 87 c-12 49 -26 92 -30 96 -4 5 -14 -18 -23 -50 -32 -123 -59 -218 -60 -219 -1 0 -54 2 -117 5 l-114 6 -141 173 c-78 95 -146 177 -152 183 -8 8 -48 -23 -140 -104 l-129 -115 -36 30 c-20 16 -38 25 -41 21 -2 -4 -12 -49 -22 -99 l-17 -91 -91 -6 c-51 -3 -98 -7 -106 -9 -15 -3 -18 6 -57 157 -14 55 -29 106 -33 113 -4 8 -18 -28 -34 -85 l-27 -98 26 -21 c23 -19 24 -21 7 -36 -34 -28 -43 -29 -74 -7 l-31 22 26 21 26 21 -27 98 c-14 54 -29 94 -33 90 -4 -4 -19 -53 -35 -108 -51 -185 -42 -168 -84 -161 -20 3 -70 6 -112 6 l-76 0 -63 288 c-34 158 -66 297 -71 309 -4 11 -29 51 -55 87 -46 64 -49 66 -91 66 l-43 0 0 -915z m710 91 c0 -28 6 -38 33 -55 46 -28 77 -88 75 -142 -1 -40 -2 -41 -5 -9 -2 19 -6 45 -8 57 -6 27 -62 93 -79 93 -8 0 -12 -42 -14 -146 -3 -144 -2 -146 22 -169 14 -13 32 -49 42 -81 9 -33 19 -65 21 -71 9 -23 -23 -13 -49 14 -48 53 -58 86 -51 178 4 61 3 85 -6 85 -6 0 -11 -4 -11 -10 0 -5 -10 -15 -22 -21 -20 -11 -20 -9 5 20 31 37 37 98 11 108 -19 7 -68 -38 -95 -87 -15 -26 -18 -29 -13 -10 10 40 58 94 92 105 l32 9 0 83 c0 49 4 83 10 83 6 0 10 -15 10 -34z m34 -192 c3 -8 2 -12 -4 -9 -6 3 -10 10 -10 16 0 14 7 11 14 -7z m69 -67 c4 3 7 -1 7 -10 0 -23 -1 -22 -41 20 -30 33 -30 35 -3 10 17 -15 33 -24 37 -20z m-223 -51 c0 -2 -7 -6 -15 -10 -8 -3 -15 -1 -15 4 0 6 7 10 15 10 8 0 15 -2 15 -4z m103 -140 c4 -10 1 -13 -7 -10 -8 3 -19 -9 -29 -33 -11 -27 -16 -32 -16 -17 -1 18 33 74 44 74 1 0 5 -7 8 -14z m24 -68 c-3 -8 -6 -5 -6 6 -1 11 2 17 5 13 3 -3 4 -12 1 -19z m-43 -156 c5 -9 11 -9 20 1 8 6 11 16 8 21 -3 5 0 6 7 2 8 -5 7 -15 -6 -36 -9 -16 -20 -27 -24 -24 -10 5 -39 93 -38 113 0 9 6 -2 13 -25 7 -23 16 -46 20 -52z m43 56 c-3 -8 -6 -5 -6 6 -1 11 2 17 5 13 3 -3 4 -12 1 -19z m20 -5 c-4 -3 -7 0 -7 7 0 7 3 10 7 7 3 -4 3 -10 0 -14z"/>
 <path d="M710 610 c0 -41 48 -130 70 -130 9 0 -29 120 -43 138 -14 18 -27 15 -27 -8z"/>
 <path d="M290 1822 c0 -4 6 -17 14 -28 8 -11 26 -60 41 -109 15 -50 30 -94 34 -98 7 -7 31 174 31 226 0 14 -10 17 -60 17 -33 0 -60 -3 -60 -8z"/>
 <path d="M971 1793 c1 -64 24 -219 30 -208 3 6 19 53 34 105 16 52 34 102 42 111 21 26 16 29 -47 29 l-60 0 1 -37z"/>
 <path d="M1246 1766 c-25 -35 -50 -74 -55 -87 -14 -33 -84 -349 -79 -355 3 -2 71 70 152 161 81 91 150 165 154 165 4 0 86 -61 182 -135 96 -74 176 -129 177 -122 3 14 53 424 53 432 0 3 -121 5 -269 5 l-269 0 -46 -64z"/>
 <path d="M2387 1823 c-3 -5 4 -73 14 -153 10 -80 18 -153 19 -162 0 -10 4 -18 8 -18 8 0 63 223 76 308 l6 32 -60 0 c-32 0 -61 -3 -63 -7z"/>
 </g>
<g id="layer109" fill="#f29c1a" stroke="none">
 <path d="M0 915 l0 -915 1375 0 1375 0 0 915 0 915 -59 0 -58 0 -7 -52 c-3 -29 -6 -80 -6 -114 0 -44 -19 -127 -73 -320 l-74 -259 -84 -6 c-46 -3 -94 -9 -105 -13 -20 -6 -23 0 -39 61 -9 37 -23 88 -30 113 -8 25 -17 60 -20 78 -9 46 -18 32 -45 -71 l-22 -88 22 -24 23 -24 -24 -20 c-30 -25 -31 -25 -63 0 l-27 21 22 24 22 24 -23 87 c-12 49 -26 92 -30 96 -4 5 -14 -18 -23 -50 -32 -123 -59 -218 -60 -219 -1 0 -54 2 -117 5 l-114 6 -141 173 c-78 95 -146 177 -152 183 -8 8 -48 -23 -140 -104 l-129 -115 -36 30 c-20 16 -38 25 -41 21 -2 -4 -12 -49 -22 -99 l-17 -91 -91 -6 c-51 -3 -98 -7 -106 -9 -15 -3 -18 6 -57 157 -14 55 -29 106 -33 113 -4 8 -18 -28 -34 -85 l-27 -98 26 -21 c23 -19 24 -21 7 -36 -34 -28 -43 -29 -74 -7 l-31 22 26 21 26 21 -27 98 c-14 54 -29 94 -33 90 -4 -4 -19 -53 -35 -108 -51 -185 -42 -168 -84 -161 -20 3 -70 6 -112 6 l-76 0 -63 288 c-34 158 -66 297 -71 309 -4 11 -29 51 -55 87 -46 64 -49 66 -91 66 l-43 0 0 -915z m710 90 c0 -28 5 -37 30 -50 45 -23 80 -91 78 -151 -1 -46 -2 -46 -5 -9 -6 66 -12 83 -44 120 -51 58 -69 45 -50 -37 5 -22 5 -36 0 -32 -5 3 -9 -37 -9 -90 0 -86 2 -97 24 -119 18 -18 66 -135 66 -162 0 -14 -29 -2 -52 22 -50 54 -60 86 -52 178 5 61 4 85 -5 85 -6 0 -11 -4 -11 -10 0 -5 -10 -15 -22 -21 -20 -11 -20 -9 5 20 31 37 37 98 11 108 -20 8 -71 -41 -96 -92 -17 -35 -19 -36 -13 -10 9 43 56 98 93 110 l32 9 0 83 c0 49 4 83 10 83 6 0 10 -16 10 -35z m34 -191 c3 -8 2 -12 -4 -9 -6 3 -10 10 -10 16 0 14 7 11 14 -7z m64 -64 c7 0 12 -7 12 -15 0 -21 -2 -20 -41 22 -18 21 -22 28 -8 15 14 -12 31 -22 37 -22z m-218 -54 c0 -2 -7 -6 -15 -10 -8 -3 -15 -1 -15 4 0 6 7 10 15 10 8 0 15 -2 15 -4z m103 -140 c4 -10 1 -13 -7 -10 -8 3 -19 -9 -29 -33 -11 -27 -16 -32 -16 -17 -1 18 33 74 44 74 1 0 5 -7 8 -14z m24 -78 c-3 -7 -5 -2 -5 12 0 14 2 19 5 13 2 -7 2 -19 0 -25z m-80 -30 c-3 -8 -6 -5 -6 6 -1 11 2 17 5 13 3 -3 4 -12 1 -19z m43 -123 c5 -3 12 6 16 20 3 13 10 22 15 19 6 -3 7 6 4 23 -4 23 -4 24 4 8 6 -12 10 -15 10 -6 1 8 4 12 7 8 8 -8 -47 -108 -56 -102 -10 6 -40 94 -39 114 0 9 7 -5 15 -31 8 -26 19 -50 24 -53z"/>
 <path d="M710 613 c2 -45 48 -133 70 -133 7 0 -29 116 -43 138 -12 18 -27 15 -27 -5z"/>
 <path d="M290 1822 c0 -4 6 -17 14 -28 8 -11 26 -60 41 -109 15 -50 30 -94 34 -98 7 -7 31 174 31 226 0 14 -10 17 -60 17 -33 0 -60 -3 -60 -8z"/>
 <path d="M971 1793 c1 -64 24 -219 30 -208 3 6 19 53 34 105 16 52 34 102 42 111 21 26 16 29 -47 29 l-60 0 1 -37z"/>
 <path d="M1246 1766 c-25 -35 -50 -74 -55 -87 -14 -33 -84 -349 -79 -355 3 -2 71 70 152 161 81 91 150 165 154 165 4 0 86 -61 182 -135 96 -74 176 -129 177 -122 3 14 53 424 53 432 0 3 -121 5 -269 5 l-269 0 -46 -64z"/>
 <path d="M2387 1823 c-3 -5 4 -73 14 -153 10 -80 18 -153 19 -162 0 -10 4 -18 8 -18 8 0 63 223 76 308 l6 32 -60 0 c-32 0 -61 -3 -63 -7z"/>
 </g>
<g id="layer110" fill="#73c28e" stroke="none">
 <path d="M0 915 l0 -915 1375 0 1375 0 0 915 0 915 -59 0 -58 0 -7 -52 c-3 -29 -6 -80 -6 -114 0 -44 -19 -127 -73 -320 l-74 -259 -84 -6 c-46 -3 -94 -9 -105 -13 -20 -6 -23 0 -39 61 -9 37 -23 88 -30 113 -8 25 -17 60 -20 78 -9 46 -18 32 -45 -71 l-22 -88 22 -24 23 -24 -24 -20 c-30 -25 -31 -25 -63 0 l-27 21 22 24 22 24 -23 87 c-12 49 -26 92 -30 96 -4 5 -14 -18 -23 -50 -32 -123 -59 -218 -60 -219 -1 0 -54 2 -117 5 l-114 6 -141 173 c-78 95 -146 177 -152 183 -8 8 -48 -23 -140 -104 l-129 -115 -36 30 c-20 16 -38 25 -41 21 -2 -4 -12 -49 -22 -99 l-17 -91 -91 -6 c-51 -3 -98 -7 -106 -9 -15 -3 -18 6 -57 157 -14 55 -29 106 -33 113 -4 8 -18 -28 -34 -85 l-27 -98 26 -21 c23 -19 24 -21 7 -36 -34 -28 -43 -29 -74 -7 l-31 22 26 21 26 21 -27 98 c-14 54 -29 94 -33 90 -4 -4 -19 -53 -35 -108 -51 -185 -42 -168 -84 -161 -20 3 -70 6 -112 6 l-76 0 -63 288 c-34 158 -66 297 -71 309 -4 11 -29 51 -55 87 -46 64 -49 66 -91 66 l-43 0 0 -915z m710 90 c0 -28 5 -37 30 -50 45 -23 80 -91 78 -151 -1 -46 -2 -46 -5 -9 -6 66 -12 83 -44 120 -51 58 -69 45 -50 -37 5 -22 5 -36 0 -32 -5 3 -9 -37 -9 -90 0 -86 2 -97 24 -119 18 -18 66 -135 66 -162 0 -14 -29 -2 -52 22 -50 54 -60 86 -52 178 5 61 4 85 -5 85 -6 0 -11 -4 -11 -10 0 -5 -10 -15 -22 -21 -20 -11 -20 -9 5 20 31 37 37 98 11 108 -20 8 -71 -41 -96 -92 -17 -35 -19 -36 -13 -10 9 43 56 98 93 110 l32 9 0 83 c0 49 4 83 10 83 6 0 10 -16 10 -35z m1426 13 l114 -12 0 -36 c0 -32 4 -37 43 -55 79 -37 109 -123 67 -193 -23 -37 -75 -72 -107 -72 -16 0 -22 -6 -21 -17 3 -44 -2 -53 -32 -53 -27 0 -30 -3 -30 -31 0 -43 -56 -99 -100 -99 -66 0 -109 43 -110 108 0 40 -1 42 -30 42 -16 0 -30 2 -30 4 0 3 9 51 20 107 11 56 19 103 17 105 -1 1 -64 -36 -139 -84 -134 -85 -137 -88 -138 -123 0 -19 -7 -59 -15 -87 l-16 -53 -85 103 c-98 117 -97 123 18 116 l69 -4 167 172 c189 195 160 181 338 162z m-1392 -204 c3 -8 2 -12 -4 -9 -6 3 -10 10 -10 16 0 14 7 11 14 -7z m64 -64 c7 0 12 -7 12 -15 0 -21 -2 -20 -41 22 -18 21 -22 28 -8 15 14 -12 31 -22 37 -22z m-218 -54 c0 -2 -7 -6 -15 -10 -8 -3 -15 -1 -15 4 0 6 7 10 15 10 8 0 15 -2 15 -4z m799 -67 c9 0 -2 -7 -23 -15 -48 -17 -84 -10 -65 13 9 10 22 13 42 9 16 -3 37 -6 46 -7z m-174 -55 c18 -13 16 -14 -22 -14 -23 0 -46 6 -52 14 -24 29 32 29 74 0z m-522 -18 c4 -10 1 -13 -7 -10 -8 3 -19 -9 -29 -33 -11 -27 -16 -32 -16 -17 -1 18 33 74 44 74 1 0 5 -7 8 -14z m726 -36 c-43 -29 -69 -38 -69 -22 1 17 18 30 55 40 61 15 61 14 14 -18z m-702 -42 c-3 -7 -5 -2 -5 12 0 14 2 19 5 13 2 -7 2 -19 0 -25z m513 -4 c0 -2 -19 -8 -41 -14 -31 -9 -45 -8 -53 0 -17 17 6 26 54 22 22 -2 40 -6 40 -8z m-593 -26 c-3 -8 -6 -5 -6 6 -1 11 2 17 5 13 3 -3 4 -12 1 -19z m855 4 c-11 -28 -36 -58 -53 -64 -28 -11 -10 29 25 57 37 30 37 30 28 7z m-447 -12 l30 -20 -36 0 c-35 0 -66 20 -52 33 11 11 27 8 58 -13z m-365 -115 c5 -3 12 6 16 20 3 13 10 22 15 19 6 -3 7 6 4 23 -4 23 -4 24 4 8 6 -12 10 -15 10 -6 1 8 4 12 7 8 8 -8 -47 -108 -56 -102 -10 6 -40 94 -39 114 0 9 7 -5 15 -31 8 -26 19 -50 24 -53z m875 38 c-8 -46 -21 -61 -36 -46 -9 9 -6 21 11 47 28 46 34 45 25 -1z m-285 -8 c-37 -38 -60 -45 -60 -17 0 10 15 24 38 34 55 25 60 22 22 -17z m-218 -35 c-38 -23 -62 -26 -62 -6 0 18 15 24 60 25 l35 1 -33 -20z m294 -61 c-13 -44 -46 -75 -46 -43 0 15 45 84 54 84 2 0 -2 -18 -8 -41z m-253 -33 c-21 -29 -60 -52 -70 -42 -13 12 11 38 47 51 19 7 36 13 38 14 2 0 -5 -10 -15 -23z m352 -29 c-7 -36 -29 -56 -38 -33 -5 13 32 80 40 72 2 -2 1 -20 -2 -39z m-243 -24 c-17 -37 -30 -53 -44 -53 -17 0 -6 26 24 57 18 18 33 33 35 33 1 0 -5 -17 -15 -37z"/>
 <path d="M710 613 c2 -45 48 -133 70 -133 7 0 -29 116 -43 138 -12 18 -27 15 -27 -5z"/>
 <path d="M2241 808 c-1 -51 -3 -100 -4 -108 -5 -33 45 -26 82 11 55 55 38 154 -31 178 -17 6 -34 11 -38 11 -4 0 -8 -42 -9 -92z"/>
 <path d="M1984 574 c-14 -57 48 -115 104 -96 30 9 62 65 54 94 -3 14 -14 18 -56 18 -28 0 -61 3 -73 6 -18 5 -23 1 -29 -22z"/>
 <path d="M290 1822 c0 -4 6 -17 14 -28 8 -11 26 -60 41 -109 15 -50 30 -94 34 -98 7 -7 31 174 31 226 0 14 -10 17 -60 17 -33 0 -60 -3 -60 -8z"/>
 <path d="M971 1793 c1 -64 24 -219 30 -208 3 6 19 53 34 105 16 52 34 102 42 111 21 26 16 29 -47 29 l-60 0 1 -37z"/>
 <path d="M1246 1766 c-25 -35 -50 -74 -55 -87 -14 -33 -84 -349 -79 -355 3 -2 71 70 152 161 81 91 150 165 154 165 4 0 86 -61 182 -135 96 -74 176 -129 177 -122 3 14 53 424 53 432 0 3 -121 5 -269 5 l-269 0 -46 -64z"/>
 <path d="M2387 1823 c-3 -5 4 -73 14 -153 10 -80 18 -153 19 -162 0 -10 4 -18 8 -18 8 0 63 223 76 308 l6 32 -60 0 c-32 0 -61 -3 -63 -7z"/>
 </g>
<g id="layer111" fill="#eea433" stroke="none">
 <path d="M0 915 l0 -915 1375 0 1375 0 0 915 0 915 -59 0 -58 0 -7 -52 c-3 -29 -6 -80 -6 -114 0 -44 -19 -127 -73 -320 l-74 -259 -84 -6 c-46 -3 -94 -9 -105 -13 -20 -6 -23 0 -39 61 -9 37 -23 88 -30 113 -8 25 -17 60 -20 78 -9 46 -18 32 -45 -71 l-22 -88 22 -24 23 -24 -24 -20 c-30 -25 -31 -25 -63 0 l-27 21 22 24 22 24 -23 87 c-12 49 -26 92 -30 96 -4 5 -14 -18 -23 -50 -32 -123 -59 -218 -60 -219 -1 0 -54 2 -117 5 l-114 6 -141 173 c-78 95 -146 177 -152 183 -8 8 -48 -23 -140 -104 l-129 -115 -36 30 c-20 16 -38 25 -41 21 -2 -4 -12 -49 -22 -99 l-17 -91 -91 -6 c-51 -3 -98 -7 -106 -9 -15 -3 -18 6 -57 157 -14 55 -29 106 -33 113 -4 8 -18 -28 -34 -85 l-27 -98 26 -21 c23 -19 24 -21 7 -36 -34 -28 -43 -29 -74 -7 l-31 22 26 21 26 21 -27 98 c-14 54 -29 94 -33 90 -4 -4 -19 -53 -35 -108 -51 -185 -42 -168 -84 -161 -20 3 -70 6 -112 6 l-76 0 -63 288 c-34 158 -66 297 -71 309 -4 11 -29 51 -55 87 -46 64 -49 66 -91 66 l-43 0 0 -915z m714 93 c-4 -29 0 -36 34 -59 21 -15 47 -44 57 -65 20 -41 31 -164 15 -164 -14 0 -55 41 -79 80 l-21 35 0 -89 c0 -76 3 -93 20 -111 11 -11 30 -53 43 -93 21 -65 22 -72 6 -72 -9 0 -23 7 -30 16 -12 14 -14 14 -21 -3 -7 -15 -8 -14 -4 5 2 12 0 22 -5 22 -5 0 -9 -30 -8 -67 l1 -68 13 40 c8 23 14 31 14 20 1 -21 -54 -145 -64 -145 -11 0 -43 84 -50 132 -8 53 6 107 35 133 18 16 19 15 34 -12 8 -15 15 -23 16 -17 0 5 -7 19 -15 30 -10 13 -14 46 -15 108 0 84 -1 88 -17 74 -21 -19 -98 -58 -113 -58 -13 0 -13 25 1 75 13 46 77 115 108 115 20 0 21 5 21 85 0 67 3 85 14 85 11 0 13 -9 10 -32z m1422 10 l114 -12 0 -36 c0 -32 4 -37 43 -55 79 -37 109 -123 67 -193 -23 -37 -75 -72 -107 -72 -16 0 -22 -6 -21 -17 3 -44 -2 -53 -32 -53 -27 0 -30 -3 -30 -31 0 -43 -56 -99 -100 -99 -66 0 -109 43 -110 108 0 40 -1 42 -30 42 -16 0 -30 2 -30 4 0 3 9 51 20 107 11 56 19 103 17 105 -1 1 -64 -36 -139 -84 -134 -85 -137 -88 -138 -123 0 -19 -7 -59 -15 -87 l-16 -53 -85 103 c-98 117 -97 123 18 116 l69 -4 167 172 c189 195 160 181 338 162z m-747 -389 c9 0 -2 -7 -23 -15 -48 -17 -84 -10 -65 13 9 10 22 13 42 9 16 -3 37 -6 46 -7z m-174 -55 c18 -13 16 -14 -22 -14 -23 0 -46 6 -52 14 -24 29 32 29 74 0z m204 -54 c-43 -29 -69 -38 -69 -22 1 17 18 30 55 40 61 15 61 14 14 -18z m-189 -46 c0 -2 -19 -8 -41 -14 -31 -9 -45 -8 -53 0 -17 17 6 26 54 22 22 -2 40 -6 40 -8z m262 -22 c-11 -28 -36 -58 -53 -64 -28 -11 -10 29 25 57 37 30 37 30 28 7z m-447 -12 l30 -20 -36 0 c-35 0 -66 20 -52 33 11 11 27 8 58 -13z m510 -77 c-8 -46 -21 -61 -36 -46 -9 9 -6 21 11 47 28 46 34 45 25 -1z m-285 -8 c-37 -38 -60 -45 -60 -17 0 10 15 24 38 34 55 25 60 22 22 -17z m-218 -35 c-38 -23 -62 -26 -62 -6 0 18 15 24 60 25 l35 1 -33 -20z m294 -61 c-13 -44 -46 -75 -46 -43 0 15 45 84 54 84 2 0 -2 -18 -8 -41z m-253 -33 c-21 -29 -60 -52 -70 -42 -13 12 11 38 47 51 19 7 36 13 38 14 2 0 -5 -10 -15 -23z m352 -29 c-7 -36 -29 -56 -38 -33 -5 13 32 80 40 72 2 -2 1 -20 -2 -39z m-243 -24 c-17 -37 -30 -53 -44 -53 -17 0 -6 26 24 57 18 18 33 33 35 33 1 0 -5 -17 -15 -37z"/>
 <path d="M719 945 c-14 -14 10 -109 37 -147 43 -61 54 -60 54 5 0 40 -6 63 -22 87 -24 34 -61 64 -69 55z"/>
 <path d="M620 822 c-37 -39 -69 -107 -56 -120 4 -3 26 4 51 16 49 24 78 68 73 109 -5 41 -26 39 -68 -5z"/>
 <path d="M720 592 c0 -24 9 -52 23 -72 24 -37 56 -56 38 -24 -5 11 -17 43 -26 71 -21 66 -35 76 -35 25z"/>
 <path d="M667 529 c-25 -41 -28 -78 -11 -140 17 -62 28 -73 39 -39 4 11 9 18 13 16 11 -7 -2 147 -14 168 -11 18 -12 18 -27 -5z"/>
 <path d="M2241 808 c-1 -51 -3 -100 -4 -108 -5 -33 45 -26 82 11 55 55 38 154 -31 178 -17 6 -34 11 -38 11 -4 0 -8 -42 -9 -92z"/>
 <path d="M1984 574 c-14 -57 48 -115 104 -96 30 9 62 65 54 94 -3 14 -14 18 -56 18 -28 0 -61 3 -73 6 -18 5 -23 1 -29 -22z"/>
 <path d="M290 1822 c0 -4 6 -17 14 -28 8 -11 26 -60 41 -109 15 -50 30 -94 34 -98 7 -7 31 174 31 226 0 14 -10 17 -60 17 -33 0 -60 -3 -60 -8z"/>
 <path d="M971 1793 c1 -64 24 -219 30 -208 3 6 19 53 34 105 16 52 34 102 42 111 21 26 16 29 -47 29 l-60 0 1 -37z"/>
 <path d="M1246 1766 c-25 -35 -50 -74 -55 -87 -14 -33 -84 -349 -79 -355 3 -2 71 70 152 161 81 91 150 165 154 165 4 0 86 -61 182 -135 96 -74 176 -129 177 -122 3 14 53 424 53 432 0 3 -121 5 -269 5 l-269 0 -46 -64z"/>
 <path d="M2387 1823 c-3 -5 4 -73 14 -153 10 -80 18 -153 19 -162 0 -10 4 -18 8 -18 8 0 63 223 76 308 l6 32 -60 0 c-32 0 -61 -3 -63 -7z"/>
 </g>
<g id="layer112" fill="#eeac46" stroke="none">
 <path d="M0 915 l0 -915 1375 0 1375 0 0 915 0 915 -59 0 -58 0 -7 -52 c-3 -29 -6 -80 -6 -114 0 -44 -19 -127 -73 -320 l-74 -259 -84 -6 c-46 -3 -94 -9 -105 -13 -20 -6 -23 0 -39 61 -9 37 -23 88 -30 113 -8 25 -17 60 -20 78 -9 46 -18 32 -45 -71 l-22 -88 22 -24 23 -24 -24 -20 c-30 -25 -31 -25 -63 0 l-27 21 22 24 22 24 -23 87 c-12 49 -26 92 -30 96 -4 5 -14 -18 -23 -50 -32 -123 -59 -218 -60 -219 -1 0 -54 2 -117 5 l-114 6 -141 173 c-78 95 -146 177 -152 183 -8 8 -48 -23 -140 -104 l-129 -115 -36 30 c-20 16 -38 25 -41 21 -2 -4 -12 -49 -22 -99 l-17 -91 -91 -6 c-51 -3 -98 -7 -106 -9 -15 -3 -18 6 -57 157 -14 55 -29 106 -33 113 -4 8 -18 -28 -34 -85 l-27 -98 26 -21 c23 -19 24 -21 7 -36 -34 -28 -43 -29 -74 -7 l-31 22 26 21 26 21 -27 98 c-14 54 -29 94 -33 90 -4 -4 -19 -53 -35 -108 -51 -185 -42 -168 -84 -161 -20 3 -70 6 -112 6 l-76 0 -63 288 c-34 158 -66 297 -71 309 -4 11 -29 51 -55 87 -46 64 -49 66 -91 66 l-43 0 0 -915z m714 93 c-4 -29 0 -36 34 -59 21 -15 47 -44 57 -65 20 -41 31 -164 15 -164 -14 0 -55 41 -79 80 l-21 35 0 -89 c0 -76 3 -93 20 -111 11 -11 30 -53 43 -93 21 -65 22 -72 6 -72 -9 0 -23 7 -30 16 -12 14 -14 14 -21 -3 -7 -15 -8 -14 -4 5 2 12 0 22 -5 22 -5 0 -9 -30 -8 -67 l1 -68 13 40 c8 23 14 31 14 20 1 -21 -54 -145 -64 -145 -11 0 -43 84 -50 132 -8 53 6 107 35 133 18 16 19 15 34 -12 8 -15 15 -23 16 -17 0 5 -7 19 -15 30 -10 13 -14 46 -15 108 0 84 -1 88 -17 74 -21 -19 -98 -58 -113 -58 -13 0 -13 25 1 75 13 46 77 115 108 115 20 0 21 5 21 85 0 67 3 85 14 85 11 0 13 -9 10 -32z m1409 11 l127 -12 0 -36 c0 -33 4 -38 43 -56 79 -37 109 -123 67 -193 -23 -37 -75 -72 -107 -72 -16 0 -22 -6 -21 -17 3 -44 -2 -53 -32 -53 -27 0 -30 -3 -30 -31 0 -43 -56 -99 -100 -99 -66 0 -109 43 -110 108 0 40 -1 42 -30 42 -35 0 -35 -8 -4 144 8 38 13 70 11 72 -1 2 -64 -37 -140 -86 -131 -86 -137 -91 -137 -123 0 -18 -7 -57 -15 -86 l-16 -52 -85 102 c-54 65 -82 105 -75 112 5 5 44 8 86 5 l77 -3 171 176 c95 98 177 176 182 174 6 -1 68 -8 138 -16z m-744 -388 c23 -6 22 -8 -16 -19 -48 -14 -80 -7 -62 14 12 15 38 16 78 5z m-174 -51 l40 -19 -46 -1 c-47 0 -85 22 -57 33 19 8 20 8 63 -13z m229 -49 c-18 -11 -35 -24 -38 -30 -12 -18 -48 -13 -44 6 2 11 20 22 48 29 64 17 69 16 34 -5z m-206 -57 c2 -1 -15 -8 -37 -15 -43 -13 -71 -3 -57 20 6 9 82 6 94 -5z m265 -21 c-12 -34 -34 -61 -52 -66 -29 -7 -14 29 23 58 37 30 37 30 29 8z m-438 -17 l40 -25 -45 6 c-48 6 -73 20 -64 34 9 14 26 10 69 -15z m497 -88 c-4 -18 -16 -34 -25 -36 -23 -5 -21 14 5 56 24 40 33 31 20 -20z m-282 7 c-37 -38 -60 -45 -60 -17 0 10 15 24 38 34 55 25 60 22 22 -17z m-218 -35 c-34 -21 -54 -25 -65 -13 -15 14 18 33 57 33 l41 0 -33 -20z m304 -32 c-3 -7 -7 -25 -10 -40 -4 -15 -15 -32 -26 -38 -30 -16 -26 21 6 59 28 33 36 38 30 19z m-262 -60 c-29 -34 -47 -47 -67 -48 -42 0 31 65 77 69 5 1 1 -9 -10 -21z m351 -31 c-7 -36 -29 -56 -38 -33 -5 13 32 80 40 72 2 -2 1 -20 -2 -39z m-243 -24 c-23 -51 -52 -72 -52 -38 0 12 55 73 67 75 2 0 -5 -17 -15 -37z"/>
 <path d="M719 945 c-14 -14 10 -109 37 -147 43 -61 54 -60 54 5 0 40 -6 63 -22 87 -24 34 -61 64 -69 55z"/>
 <path d="M620 822 c-37 -39 -69 -107 -56 -120 4 -3 26 4 51 16 49 24 78 68 73 109 -5 41 -26 39 -68 -5z"/>
 <path d="M720 592 c0 -24 9 -52 23 -72 24 -37 56 -56 38 -24 -5 11 -17 43 -26 71 -21 66 -35 76 -35 25z"/>
 <path d="M667 529 c-25 -41 -28 -78 -11 -140 17 -62 28 -73 39 -39 4 11 9 18 13 16 11 -7 -2 147 -14 168 -11 18 -12 18 -27 -5z"/>
 <path d="M2241 800 c-1 -56 -4 -106 -7 -111 -8 -14 34 -10 65 6 79 40 58 179 -30 200 l-26 7 -2 -102z"/>
 <path d="M1986 574 c-7 -27 6 -65 27 -83 20 -16 67 -17 94 -2 24 12 42 76 27 91 -5 4 -39 10 -76 12 -62 4 -67 2 -72 -18z"/>
 <path d="M290 1822 c0 -4 6 -17 14 -28 8 -11 26 -60 41 -109 15 -50 30 -94 34 -98 7 -7 31 174 31 226 0 14 -10 17 -60 17 -33 0 -60 -3 -60 -8z"/>
 <path d="M971 1793 c1 -64 24 -219 30 -208 3 6 19 53 34 105 16 52 34 102 42 111 21 26 16 29 -47 29 l-60 0 1 -37z"/>
 <path d="M1246 1766 c-25 -35 -50 -74 -55 -87 -14 -33 -84 -349 -79 -355 3 -2 71 70 152 161 81 91 150 165 154 165 4 0 86 -61 182 -135 96 -74 176 -129 177 -122 3 14 53 424 53 432 0 3 -121 5 -269 5 l-269 0 -46 -64z"/>
 <path d="M2387 1823 c-3 -5 4 -73 14 -153 10 -80 18 -153 19 -162 0 -10 4 -18 8 -18 8 0 63 223 76 308 l6 32 -60 0 c-32 0 -61 -3 -63 -7z"/>
 </g>
<g id="layer113" fill="#9dcdaa" stroke="none">
 <path d="M0 915 l0 -915 1375 0 1375 0 0 915 0 915 -59 0 -58 0 -7 -52 c-3 -29 -6 -80 -6 -114 0 -44 -19 -127 -73 -320 l-74 -259 -84 -6 c-46 -3 -94 -9 -105 -13 -20 -6 -23 0 -39 61 -9 37 -23 88 -30 113 -8 25 -17 60 -20 78 -9 46 -18 32 -45 -71 l-22 -88 22 -24 23 -24 -24 -20 c-30 -25 -31 -25 -63 0 l-27 21 22 24 22 24 -23 87 c-12 49 -26 92 -30 96 -4 5 -14 -18 -23 -50 -32 -123 -59 -218 -60 -219 -1 0 -54 2 -117 5 l-114 6 -141 173 c-78 95 -146 177 -152 183 -8 8 -48 -23 -140 -104 l-129 -115 -36 30 c-20 16 -38 25 -41 21 -2 -4 -12 -49 -22 -99 l-17 -91 -91 -6 c-51 -3 -98 -7 -106 -9 -15 -3 -18 6 -57 157 -14 55 -29 106 -33 113 -4 8 -18 -28 -34 -85 l-27 -98 26 -21 c23 -19 24 -21 7 -36 -34 -28 -43 -29 -74 -7 l-31 22 26 21 26 21 -27 98 c-14 54 -29 94 -33 90 -4 -4 -19 -53 -35 -108 -51 -185 -42 -168 -84 -161 -20 3 -70 6 -112 6 l-76 0 -63 288 c-34 158 -66 297 -71 309 -4 11 -29 51 -55 87 -46 64 -49 66 -91 66 l-43 0 0 -915z m714 93 c-4 -29 0 -36 34 -59 21 -15 47 -44 57 -65 20 -41 31 -164 15 -164 -14 0 -55 41 -79 80 l-21 35 0 -89 c0 -76 3 -93 20 -111 11 -11 30 -53 43 -93 21 -65 22 -72 6 -72 -9 0 -23 7 -30 16 -12 14 -14 14 -21 -3 -7 -15 -8 -14 -4 5 2 12 0 22 -5 22 -5 0 -9 -30 -8 -67 l1 -68 13 40 c8 23 14 31 14 20 1 -21 -54 -145 -64 -145 -11 0 -43 84 -50 132 -8 53 6 107 35 133 18 16 19 15 34 -12 8 -15 15 -23 16 -17 0 5 -7 19 -15 30 -10 13 -14 46 -15 108 0 84 -1 88 -17 74 -21 -19 -98 -58 -113 -58 -13 0 -13 25 1 75 13 46 77 115 108 115 20 0 21 5 21 85 0 67 3 85 14 85 11 0 13 -9 10 -32z m1414 11 l122 -12 0 -38 c0 -31 4 -39 19 -39 10 0 38 -17 62 -39 43 -38 44 -40 44 -99 0 -56 -3 -64 -35 -97 -23 -23 -47 -37 -72 -41 -26 -5 -37 -11 -36 -23 3 -42 -2 -51 -32 -51 -25 0 -30 -4 -30 -25 0 -91 -109 -138 -179 -79 -27 22 -31 32 -31 75 0 48 -1 49 -30 49 -34 0 -35 1 -15 90 8 36 14 78 15 93 l0 28 -29 -20 c-16 -12 -32 -21 -36 -21 -4 0 -32 -17 -63 -38 -32 -21 -76 -51 -99 -65 -40 -26 -43 -30 -44 -75 0 -26 -8 -63 -17 -83 l-17 -36 -84 99 c-58 69 -80 103 -73 110 6 6 42 9 87 6 l77 -3 171 176 c101 104 178 176 187 174 8 -2 70 -9 138 -16z m-733 -388 c28 -6 27 -7 -22 -18 -60 -14 -90 -9 -72 13 12 15 43 16 94 5z m-190 -51 l40 -19 -43 -1 c-24 0 -53 5 -65 12 -21 11 -21 11 -2 19 27 10 25 11 70 -11z m217 -60 c-41 -29 -82 -40 -82 -21 0 14 18 24 65 38 60 17 62 16 17 -17z m-207 -40 c43 0 19 -17 -36 -25 -32 -5 -49 -3 -54 5 -10 16 15 32 40 25 11 -2 33 -5 50 -5z m278 -27 c-13 -34 -34 -61 -53 -66 -32 -8 -24 18 15 52 41 36 47 38 38 14z m-443 -13 c22 -11 40 -22 40 -24 0 -8 -85 7 -97 16 -14 11 -8 28 8 28 5 0 28 -9 49 -20z m229 -79 c-36 -42 -69 -53 -69 -23 0 10 17 26 43 38 60 31 63 29 26 -15z m271 -31 c-13 -23 -40 -27 -40 -5 0 9 10 30 23 46 l22 31 3 -25 c2 -15 -2 -35 -8 -47z m-485 -5 c-42 -25 -70 -31 -79 -16 -9 14 17 29 59 34 22 2 45 4 50 5 6 1 -8 -9 -30 -23z m285 -69 c-14 -45 -50 -69 -50 -34 0 21 49 83 58 74 2 -3 -1 -21 -8 -40z m97 -56 c-8 -27 -19 -45 -27 -45 -21 0 -15 38 12 80 27 41 33 27 15 -35z m-348 33 c-36 -40 -52 -52 -72 -53 -31 0 -2 37 46 59 23 11 44 20 46 20 3 1 -6 -11 -20 -26z m124 -23 c-3 -11 -9 -23 -14 -26 -5 -3 -9 -14 -9 -24 0 -17 -26 -40 -44 -40 -18 0 -1 39 31 72 20 21 38 38 39 38 1 0 0 -9 -3 -20z"/>
 <path d="M719 945 c-14 -14 10 -109 37 -147 43 -61 54 -60 54 5 0 40 -6 63 -22 87 -24 34 -61 64 -69 55z"/>
 <path d="M620 822 c-37 -39 -69 -107 -56 -120 4 -3 26 4 51 16 49 24 78 68 73 109 -5 41 -26 39 -68 -5z"/>
 <path d="M720 592 c0 -24 9 -52 23 -72 24 -37 56 -56 38 -24 -5 11 -17 43 -26 71 -21 66 -35 76 -35 25z"/>
 <path d="M667 529 c-25 -41 -28 -78 -11 -140 17 -62 28 -73 39 -39 4 11 9 18 13 16 11 -7 -2 147 -14 168 -11 18 -12 18 -27 -5z"/>
 <path d="M2247 883 c-3 -10 -6 -60 -7 -110 -2 -101 2 -105 53 -82 82 37 68 177 -20 203 -16 5 -23 2 -26 -11z"/>
 <path d="M1986 574 c-17 -44 27 -94 83 -94 34 0 71 39 71 75 0 29 -17 35 -90 35 -43 0 -59 -4 -64 -16z"/>
 <path d="M290 1822 c0 -4 6 -17 14 -28 8 -11 26 -60 41 -109 15 -50 30 -94 34 -98 7 -7 31 174 31 226 0 14 -10 17 -60 17 -33 0 -60 -3 -60 -8z"/>
 <path d="M971 1793 c1 -64 24 -219 30 -208 3 6 19 53 34 105 16 52 34 102 42 111 21 26 16 29 -47 29 l-60 0 1 -37z"/>
 <path d="M1246 1766 c-25 -35 -50 -74 -55 -87 -14 -33 -84 -349 -79 -355 3 -2 71 70 152 161 81 91 150 165 154 165 4 0 86 -61 182 -135 96 -74 176 -129 177 -122 3 14 53 424 53 432 0 3 -121 5 -269 5 l-269 0 -46 -64z"/>
 <path d="M2387 1823 c-3 -5 4 -73 14 -153 10 -80 18 -153 19 -162 0 -10 4 -18 8 -18 8 0 63 223 76 308 l6 32 -60 0 c-32 0 -61 -3 -63 -7z"/>
 </g>
<g id="layer114" fill="#f5ba6f" stroke="none">
 <path d="M0 915 l0 -915 1375 0 1375 0 0 915 0 915 -59 0 -58 0 -7 -52 c-3 -29 -6 -80 -6 -114 0 -44 -19 -127 -73 -320 l-74 -259 -84 -6 c-46 -3 -94 -9 -105 -13 -20 -6 -23 0 -39 61 -9 37 -23 88 -30 113 -8 25 -17 60 -20 78 -9 46 -18 32 -45 -71 l-22 -88 22 -24 23 -24 -24 -20 c-30 -25 -31 -25 -63 0 l-27 21 22 24 22 24 -23 87 c-12 49 -26 92 -30 96 -4 5 -14 -18 -23 -50 -32 -123 -59 -218 -60 -219 -1 0 -54 2 -117 5 l-114 6 -141 173 c-78 95 -146 177 -152 183 -8 8 -48 -23 -140 -104 l-129 -115 -36 30 c-20 16 -38 25 -41 21 -2 -4 -12 -49 -22 -99 l-17 -91 -91 -6 c-51 -3 -98 -7 -106 -9 -15 -3 -18 6 -57 157 -14 55 -29 106 -33 113 -4 8 -18 -28 -34 -85 l-27 -98 26 -21 c23 -19 24 -21 7 -36 -34 -28 -43 -29 -74 -7 l-31 22 26 21 26 21 -27 98 c-14 54 -29 94 -33 90 -4 -4 -19 -53 -35 -108 -51 -185 -42 -168 -84 -161 -20 3 -70 6 -112 6 l-76 0 -63 288 c-34 158 -66 297 -71 309 -4 11 -29 51 -55 87 -46 64 -49 66 -91 66 l-43 0 0 -915z m713 91 c-4 -28 -2 -35 15 -40 31 -10 79 -70 91 -113 13 -45 15 -143 3 -143 -12 0 -57 50 -81 90 l-21 35 0 -89 c0 -76 3 -93 20 -111 27 -29 72 -165 54 -165 -21 0 -44 12 -44 22 0 6 8 4 17 -3 14 -12 16 -12 11 1 -3 8 -13 41 -22 72 -9 31 -21 60 -26 63 -15 9 -12 -56 3 -85 7 -14 12 -54 12 -91 -1 -52 -7 -76 -29 -112 -15 -26 -29 -47 -31 -47 -3 0 -13 17 -24 39 -41 80 -37 185 9 226 17 15 20 31 20 108 0 85 -1 89 -17 75 -21 -19 -98 -58 -113 -58 -5 0 -10 11 -10 25 0 64 72 165 117 165 22 0 23 3 23 85 0 67 3 85 14 85 11 0 13 -9 9 -34z m1415 13 l122 -12 0 -38 c0 -31 4 -39 19 -39 10 0 38 -17 62 -39 43 -38 44 -40 44 -99 0 -56 -3 -64 -35 -97 -23 -23 -47 -37 -72 -41 -26 -5 -37 -11 -36 -23 3 -42 -2 -51 -32 -51 -25 0 -30 -4 -30 -25 0 -91 -109 -138 -179 -79 -27 22 -31 32 -31 75 0 48 -1 49 -30 49 -34 0 -35 1 -15 90 8 36 14 78 15 93 l0 28 -29 -20 c-16 -12 -32 -21 -36 -21 -4 0 -32 -17 -63 -38 -32 -21 -76 -51 -99 -65 -40 -26 -43 -30 -44 -75 0 -26 -8 -63 -17 -83 l-17 -36 -84 99 c-58 69 -80 103 -73 110 6 6 42 9 87 6 l77 -3 171 176 c101 104 178 176 187 174 8 -2 70 -9 138 -16z m-733 -388 c28 -6 27 -7 -22 -18 -60 -14 -90 -9 -72 13 12 15 43 16 94 5z m-190 -51 l40 -19 -43 -1 c-24 0 -53 5 -65 12 -21 11 -21 11 -2 19 27 10 25 11 70 -11z m217 -60 c-41 -29 -82 -40 -82 -21 0 14 18 24 65 38 60 17 62 16 17 -17z m-207 -40 c43 0 19 -17 -36 -25 -32 -5 -49 -3 -54 5 -10 16 15 32 40 25 11 -2 33 -5 50 -5z m278 -27 c-13 -34 -34 -61 -53 -66 -32 -8 -24 18 15 52 41 36 47 38 38 14z m-443 -13 c22 -11 40 -22 40 -24 0 -8 -85 7 -97 16 -14 11 -8 28 8 28 5 0 28 -9 49 -20z m229 -79 c-36 -42 -69 -53 -69 -23 0 10 17 26 43 38 60 31 63 29 26 -15z m271 -31 c-13 -23 -40 -27 -40 -5 0 9 10 30 23 46 l22 31 3 -25 c2 -15 -2 -35 -8 -47z m-485 -5 c-42 -25 -70 -31 -79 -16 -9 14 17 29 59 34 22 2 45 4 50 5 6 1 -8 -9 -30 -23z m285 -69 c-14 -45 -50 -69 -50 -34 0 21 49 83 58 74 2 -3 -1 -21 -8 -40z m97 -56 c-8 -27 -19 -45 -27 -45 -21 0 -15 38 12 80 27 41 33 27 15 -35z m-348 33 c-36 -40 -52 -52 -72 -53 -31 0 -2 37 46 59 23 11 44 20 46 20 3 1 -6 -11 -20 -26z m124 -23 c-3 -11 -9 -23 -14 -26 -5 -3 -9 -14 -9 -24 0 -17 -26 -40 -44 -40 -18 0 -1 39 31 72 20 21 38 38 39 38 1 0 0 -9 -3 -20z"/>
 <path d="M722 896 c3 -41 13 -68 34 -98 45 -64 57 -62 52 9 -4 63 -31 113 -70 134 -20 11 -20 9 -16 -45z"/>
 <path d="M635 839 c-31 -26 -79 -119 -66 -132 5 -5 27 1 51 13 44 22 74 72 68 113 -4 29 -20 31 -53 6z"/>
 <path d="M700 550 c0 -7 3 -10 7 -7 3 4 3 10 0 14 -4 3 -7 0 -7 -7z"/>
 <path d="M665 519 c-22 -42 -22 -103 0 -155 l17 -39 14 30 c17 39 17 143 0 174 l-14 25 -17 -35z"/>
 <path d="M721 475 c0 -16 4 -37 9 -45 8 -12 10 -11 9 5 -1 11 -5 31 -9 45 -8 24 -8 24 -9 -5z"/>
 <path d="M721 394 c0 -11 3 -14 6 -6 3 7 2 16 -1 19 -3 4 -6 -2 -5 -13z"/>
 <path d="M2247 883 c-3 -10 -6 -60 -7 -110 -2 -101 2 -105 53 -82 82 37 68 177 -20 203 -16 5 -23 2 -26 -11z"/>
 <path d="M1986 574 c-17 -44 27 -94 83 -94 34 0 71 39 71 75 0 29 -17 35 -90 35 -43 0 -59 -4 -64 -16z"/>
 <path d="M290 1822 c0 -4 6 -17 14 -28 8 -11 26 -60 41 -109 15 -50 30 -94 34 -98 7 -7 31 174 31 226 0 14 -10 17 -60 17 -33 0 -60 -3 -60 -8z"/>
 <path d="M971 1793 c1 -64 24 -219 30 -208 3 6 19 53 34 105 16 52 34 102 42 111 21 26 16 29 -47 29 l-60 0 1 -37z"/>
 <path d="M1246 1766 c-25 -35 -50 -74 -55 -87 -14 -33 -84 -349 -79 -355 3 -2 71 70 152 161 81 91 150 165 154 165 4 0 86 -61 182 -135 96 -74 176 -129 177 -122 3 14 53 424 53 432 0 3 -121 5 -269 5 l-269 0 -46 -64z"/>
 <path d="M2387 1823 c-3 -5 4 -73 14 -153 10 -80 18 -153 19 -162 0 -10 4 -18 8 -18 8 0 63 223 76 308 l6 32 -60 0 c-32 0 -61 -3 -63 -7z"/>
 </g>
<g id="layer115" fill="#bfc3c8" stroke="none">
 <path d="M0 915 l0 -915 1375 0 1375 0 0 915 0 915 -59 0 -58 0 -7 -52 c-3 -29 -6 -80 -6 -114 0 -44 -19 -127 -73 -320 l-74 -259 -84 -6 c-46 -3 -94 -9 -105 -13 -20 -6 -23 0 -39 61 -9 37 -23 88 -30 113 -8 25 -17 60 -20 78 -9 46 -18 32 -45 -71 l-22 -88 22 -24 23 -24 -24 -20 c-30 -25 -31 -25 -63 0 l-27 21 22 24 22 24 -23 87 c-12 49 -26 92 -30 96 -4 5 -14 -18 -23 -50 -32 -123 -59 -218 -60 -219 -1 0 -54 2 -117 5 l-114 6 -141 173 c-78 95 -146 177 -152 183 -8 8 -48 -23 -140 -104 l-129 -115 -36 30 c-20 16 -38 25 -41 21 -2 -4 -12 -49 -22 -99 l-17 -91 -91 -6 c-51 -3 -98 -7 -106 -9 -15 -3 -18 6 -57 157 -14 55 -29 106 -33 113 -4 8 -18 -28 -34 -85 l-27 -98 26 -21 c23 -19 24 -21 7 -36 -34 -28 -43 -29 -74 -7 l-31 22 26 21 26 21 -27 98 c-14 54 -29 94 -33 90 -4 -4 -19 -53 -35 -108 -51 -185 -42 -168 -84 -161 -20 3 -70 6 -112 6 l-76 0 -63 288 c-34 158 -66 297 -71 309 -4 11 -29 51 -55 87 -46 64 -49 66 -91 66 l-43 0 0 -915z m713 91 c-4 -28 -2 -35 15 -40 31 -10 79 -70 91 -113 13 -45 15 -143 3 -143 -12 0 -57 50 -81 90 l-21 35 0 -89 c0 -76 3 -93 20 -111 27 -29 72 -165 54 -165 -21 0 -44 12 -44 22 0 6 8 4 17 -3 14 -12 16 -12 11 1 -3 8 -13 41 -22 72 -9 31 -21 60 -26 63 -15 9 -12 -56 3 -85 7 -14 12 -54 12 -91 -1 -52 -7 -76 -29 -112 -15 -26 -29 -47 -31 -47 -3 0 -13 17 -24 39 -41 80 -37 185 9 226 17 15 20 31 20 108 0 85 -1 89 -17 75 -21 -19 -98 -58 -113 -58 -5 0 -10 11 -10 25 0 64 72 165 117 165 22 0 23 3 23 85 0 67 3 85 14 85 11 0 13 -9 9 -34z m1440 13 l97 -11 0 -39 c0 -29 4 -39 15 -39 59 0 115 -69 115 -140 0 -74 -57 -140 -120 -140 -14 0 -20 -7 -22 -22 0 -13 -2 -30 -2 -38 -1 -11 -11 -14 -34 -12 -31 3 -32 2 -32 -33 0 -88 -112 -128 -182 -66 -28 25 -33 36 -33 75 0 43 -2 46 -27 46 -33 0 -35 12 -13 110 24 107 25 106 -72 43 -49 -30 -109 -69 -135 -86 -44 -28 -48 -33 -48 -71 0 -45 -16 -112 -29 -120 -7 -4 -181 194 -181 207 0 10 117 17 147 8 32 -9 33 -8 205 170 l173 178 40 -4 c22 -2 84 -9 138 -16z m-754 -386 c21 -5 19 -7 -19 -20 -51 -18 -98 -10 -80 12 13 16 58 19 99 8z m-197 -50 l43 -18 -45 -5 c-31 -4 -50 -1 -63 9 -13 11 -15 16 -5 23 18 11 22 10 70 -9z m222 -63 c-37 -28 -84 -40 -84 -21 0 20 58 48 104 50 14 1 9 -7 -20 -29z m-189 -41 c16 0 14 -4 -10 -14 -37 -17 -91 -19 -101 -4 -11 18 18 30 56 24 19 -2 44 -5 55 -6z m264 -21 c-24 -46 -51 -78 -65 -78 -26 0 -14 35 23 67 45 38 58 41 42 11z m-438 -24 l44 -26 -54 7 c-63 7 -71 11 -71 31 0 22 33 17 81 -12z m503 -51 c-11 -65 -54 -113 -54 -61 0 19 46 98 57 98 2 0 1 -17 -3 -37z m-285 -23 c-20 -25 -41 -40 -55 -40 -36 0 -19 34 29 57 60 29 62 28 26 -17z m-179 -15 c0 -9 -79 -45 -100 -45 -43 0 -14 35 35 43 48 7 65 7 65 2z m254 -78 c-18 -53 -54 -84 -54 -47 0 19 59 104 67 97 1 -2 -4 -25 -13 -50z m100 -44 c-7 -49 -29 -87 -45 -77 -16 9 -10 36 19 80 15 24 28 44 30 44 2 0 0 -21 -4 -47z m-365 -3 c-20 -25 -41 -40 -55 -40 -52 0 3 52 84 79 2 1 -12 -17 -29 -39z m124 -32 c-20 -52 -31 -68 -49 -68 -25 0 -15 34 23 72 20 21 38 38 40 38 2 0 -5 -19 -14 -42z"/>
 <path d="M722 896 c3 -41 13 -68 34 -98 45 -64 57 -62 52 9 -4 63 -31 113 -70 134 -20 11 -20 9 -16 -45z"/>
 <path d="M635 839 c-31 -26 -79 -119 -66 -132 5 -5 27 1 51 13 44 22 74 72 68 113 -4 29 -20 31 -53 6z"/>
 <path d="M700 550 c0 -7 3 -10 7 -7 3 4 3 10 0 14 -4 3 -7 0 -7 -7z"/>
 <path d="M665 519 c-22 -42 -22 -103 0 -155 l17 -39 14 30 c17 39 17 143 0 174 l-14 25 -17 -35z"/>
 <path d="M721 475 c0 -16 4 -37 9 -45 8 -12 10 -11 9 5 -1 11 -5 31 -9 45 -8 24 -8 24 -9 -5z"/>
 <path d="M721 394 c0 -11 3 -14 6 -6 3 7 2 16 -1 19 -3 4 -6 -2 -5 -13z"/>
 <path d="M2247 848 c-4 -29 -7 -79 -7 -110 0 -52 2 -58 21 -58 12 0 37 16 56 35 33 33 35 39 30 81 -5 49 -33 86 -73 98 -19 6 -22 1 -27 -46z"/>
 <path d="M1990 557 c0 -70 87 -104 129 -51 12 15 21 37 21 49 0 18 -7 24 -37 29 -21 3 -55 6 -75 6 -36 0 -38 -1 -38 -33z"/>
 <path d="M290 1822 c0 -4 6 -17 14 -28 8 -11 26 -60 41 -109 15 -50 30 -94 34 -98 7 -7 31 174 31 226 0 14 -10 17 -60 17 -33 0 -60 -3 -60 -8z"/>
 <path d="M971 1793 c1 -64 24 -219 30 -208 3 6 19 53 34 105 16 52 34 102 42 111 21 26 16 29 -47 29 l-60 0 1 -37z"/>
 <path d="M1246 1766 c-25 -35 -50 -74 -55 -87 -14 -33 -84 -349 -79 -355 3 -2 71 70 152 161 81 91 150 165 154 165 4 0 86 -61 182 -135 96 -74 176 -129 177 -122 3 14 53 424 53 432 0 3 -121 5 -269 5 l-269 0 -46 -64z"/>
 <path d="M2387 1823 c-3 -5 4 -73 14 -153 10 -80 18 -153 19 -162 0 -10 4 -18 8 -18 8 0 63 223 76 308 l6 32 -60 0 c-32 0 -61 -3 -63 -7z"/>
 </g>
<g id="layer116" fill="#c9e5d0" stroke="none">
 <path d="M0 915 l0 -915 1375 0 1375 0 0 915 0 915 -60 0 -60 0 -1 -37 c-1 -21 -1 -60 0 -88 3 -60 -3 -84 -100 -430 -16 -60 -34 -124 -38 -141 -5 -18 -11 -36 -14 -41 -6 -9 -65 -17 -191 -26 -31 -2 -28 -9 -82 206 -10 37 -21 64 -25 60 -4 -4 -17 -45 -29 -91 l-22 -83 22 -24 23 -24 -24 -20 c-30 -25 -31 -25 -63 0 l-27 21 22 24 22 24 -23 87 c-21 82 -40 127 -40 93 0 -8 -17 -75 -37 -148 -30 -106 -41 -131 -53 -125 -8 3 -61 8 -117 11 l-101 4 -99 121 c-54 67 -121 149 -149 183 l-51 62 -114 -101 c-63 -56 -123 -108 -132 -116 -14 -11 -21 -9 -49 14 -41 35 -51 15 -13 -25 23 -24 26 -35 21 -62 -3 -18 -9 -50 -12 -70 -8 -45 -19 -48 -32 -10 l-9 27 -24 -47 c-22 -46 -25 -48 -64 -48 -34 0 -45 5 -63 30 -18 24 -28 29 -60 27 -42 -2 -37 -13 -95 198 -14 50 -26 81 -26 69 -1 -11 -10 -47 -21 -79 -25 -73 -25 -97 0 -120 26 -24 25 -27 -10 -48 -29 -18 -31 -18 -61 4 l-30 21 20 22 c25 26 26 42 7 104 -8 26 -17 60 -21 76 -8 39 -20 24 -39 -53 -39 -155 -58 -203 -75 -195 -9 4 -60 10 -113 12 l-98 4 -9 36 c-10 38 -43 195 -62 292 -6 30 -15 66 -20 80 -4 14 -16 63 -26 110 -14 69 -27 98 -67 157 -48 72 -49 73 -92 73 l-44 0 0 -915z m713 91 c-4 -28 -2 -35 15 -40 31 -10 79 -70 91 -113 13 -45 15 -143 3 -143 -12 0 -57 50 -81 90 l-21 35 0 -89 c0 -76 3 -93 20 -111 27 -29 72 -165 54 -165 -21 0 -44 12 -44 22 0 6 8 4 17 -3 14 -12 16 -12 11 1 -3 8 -13 41 -22 72 -9 31 -21 60 -26 63 -15 9 -12 -56 3 -85 7 -14 12 -54 12 -91 -1 -52 -7 -76 -29 -112 -15 -26 -29 -47 -31 -47 -3 0 -13 17 -24 39 -41 80 -37 185 9 226 17 15 20 31 20 108 0 85 -1 89 -17 75 -21 -19 -98 -58 -113 -58 -5 0 -10 11 -10 25 0 64 72 165 117 165 22 0 23 3 23 85 0 67 3 85 14 85 11 0 13 -9 9 -34z m1440 13 l97 -11 0 -39 c0 -29 4 -39 15 -39 59 0 115 -69 115 -140 0 -74 -57 -140 -120 -140 -14 0 -20 -7 -22 -22 0 -13 -2 -30 -2 -38 -1 -11 -11 -14 -34 -12 -31 3 -32 2 -32 -33 0 -88 -112 -128 -182 -66 -28 25 -33 36 -33 75 0 43 -2 46 -27 46 -33 0 -35 12 -13 110 24 107 25 106 -72 43 -49 -30 -109 -69 -135 -86 -44 -28 -48 -33 -48 -71 0 -45 -16 -112 -29 -120 -7 -4 -181 194 -181 207 0 10 117 17 147 8 32 -9 33 -8 205 170 l173 178 40 -4 c22 -2 84 -9 138 -16z m-754 -386 c21 -5 19 -7 -19 -20 -51 -18 -98 -10 -80 12 13 16 58 19 99 8z m-197 -50 l43 -18 -45 -5 c-31 -4 -50 -1 -63 9 -13 11 -15 16 -5 23 18 11 22 10 70 -9z m222 -63 c-37 -28 -84 -40 -84 -21 0 20 58 48 104 50 14 1 9 -7 -20 -29z m-189 -41 c16 0 14 -4 -10 -14 -37 -17 -91 -19 -101 -4 -11 18 18 30 56 24 19 -2 44 -5 55 -6z m264 -21 c-24 -46 -51 -78 -65 -78 -26 0 -14 35 23 67 45 38 58 41 42 11z m-438 -24 l44 -26 -54 7 c-63 7 -71 11 -71 31 0 22 33 17 81 -12z m503 -51 c-11 -65 -54 -113 -54 -61 0 19 46 98 57 98 2 0 1 -17 -3 -37z m-285 -23 c-20 -25 -41 -40 -55 -40 -36 0 -19 34 29 57 60 29 62 28 26 -17z m-179 -15 c0 -9 -79 -45 -100 -45 -43 0 -14 35 35 43 48 7 65 7 65 2z m254 -78 c-18 -53 -54 -84 -54 -47 0 19 59 104 67 97 1 -2 -4 -25 -13 -50z m100 -44 c-7 -49 -29 -87 -45 -77 -16 9 -10 36 19 80 15 24 28 44 30 44 2 0 0 -21 -4 -47z m-365 -3 c-20 -25 -41 -40 -55 -40 -52 0 3 52 84 79 2 1 -12 -17 -29 -39z m124 -32 c-20 -52 -31 -68 -49 -68 -25 0 -15 34 23 72 20 21 38 38 40 38 2 0 -5 -19 -14 -42z"/>
 <path d="M722 896 c3 -41 13 -68 34 -98 45 -64 57 -62 52 9 -4 63 -31 113 -70 134 -20 11 -20 9 -16 -45z"/>
 <path d="M635 839 c-31 -26 -79 -119 -66 -132 5 -5 27 1 51 13 44 22 74 72 68 113 -4 29 -20 31 -53 6z"/>
 <path d="M700 550 c0 -7 3 -10 7 -7 3 4 3 10 0 14 -4 3 -7 0 -7 -7z"/>
 <path d="M665 519 c-22 -42 -22 -103 0 -155 l17 -39 14 30 c17 39 17 143 0 174 l-14 25 -17 -35z"/>
 <path d="M721 475 c0 -16 4 -37 9 -45 8 -12 10 -11 9 5 -1 11 -5 31 -9 45 -8 24 -8 24 -9 -5z"/>
 <path d="M721 394 c0 -11 3 -14 6 -6 3 7 2 16 -1 19 -3 4 -6 -2 -5 -13z"/>
 <path d="M2247 848 c-4 -29 -7 -79 -7 -110 0 -52 2 -58 21 -58 12 0 37 16 56 35 33 33 35 39 30 81 -5 49 -33 86 -73 98 -19 6 -22 1 -27 -46z"/>
 <path d="M1990 557 c0 -70 87 -104 129 -51 12 15 21 37 21 49 0 18 -7 24 -37 29 -21 3 -55 6 -75 6 -36 0 -38 -1 -38 -33z"/>
 <path d="M290 1821 c0 -5 6 -14 14 -20 7 -6 21 -41 31 -78 10 -38 24 -81 31 -98 l12 -30 6 25 c5 25 26 185 26 202 0 4 -27 8 -60 8 -33 0 -60 -4 -60 -9z"/>
 <path d="M973 1793 c4 -21 9 -71 13 -110 4 -40 10 -73 13 -73 8 0 51 120 51 141 0 9 9 28 20 42 11 14 20 28 20 31 0 3 -28 6 -61 6 l-62 0 6 -37z"/>
 <path d="M1243 1758 c-52 -78 -58 -93 -98 -288 -15 -69 -29 -132 -31 -140 -3 -8 -3 -12 -1 -10 3 3 71 79 151 170 81 91 151 165 156 165 8 0 62 -41 158 -120 20 -17 49 -38 63 -47 14 -9 48 -35 75 -59 43 -37 49 -40 55 -23 4 11 17 100 29 199 11 99 23 190 25 203 l5 22 -268 0 -269 0 -50 -72z"/>
 <path d="M2390 1818 c-1 -39 35 -328 41 -328 7 0 7 -2 44 175 35 171 36 165 -30 165 -37 0 -55 -4 -55 -12z"/>
 </g>
<g id="layer117" fill="#ffffff" stroke="none">
 <path d="M0 915 l0 -915 1375 0 1375 0 0 915 0 915 -60 0 -60 0 -1 -37 c-1 -21 -1 -60 0 -88 3 -60 -3 -84 -100 -430 -16 -60 -34 -124 -38 -141 -5 -18 -11 -36 -14 -41 -6 -9 -65 -17 -191 -26 -31 -2 -28 -9 -82 206 -10 37 -21 64 -25 60 -4 -4 -17 -45 -29 -91 l-22 -83 22 -24 23 -24 -24 -20 c-30 -25 -31 -25 -63 0 l-27 21 22 24 22 24 -23 87 c-21 82 -40 127 -40 93 0 -8 -17 -75 -37 -148 -30 -106 -41 -131 -53 -125 -8 3 -61 8 -117 11 l-101 4 -99 121 c-54 67 -121 149 -149 183 l-51 62 -114 -101 c-63 -56 -123 -108 -132 -116 -14 -11 -21 -9 -49 14 -41 35 -51 15 -13 -25 23 -24 26 -35 21 -62 -3 -18 -9 -50 -12 -70 -8 -45 -19 -48 -32 -10 l-9 27 -24 -47 c-22 -46 -25 -48 -64 -48 -34 0 -45 5 -63 30 -18 24 -28 29 -60 27 -42 -2 -37 -13 -95 198 -14 50 -26 81 -26 69 -1 -11 -10 -47 -21 -79 -25 -73 -25 -97 0 -120 26 -24 25 -27 -10 -48 -29 -18 -31 -18 -61 4 l-30 21 20 22 c25 26 26 42 7 104 -8 26 -17 60 -21 76 -8 39 -20 24 -39 -53 -39 -155 -58 -203 -75 -195 -9 4 -60 10 -113 12 l-98 4 -9 36 c-10 38 -43 195 -62 292 -6 30 -15 66 -20 80 -4 14 -16 63 -26 110 -14 69 -27 98 -67 157 -48 72 -49 73 -92 73 l-44 0 0 -915z m720 93 c0 -26 8 -39 35 -61 52 -42 75 -94 75 -172 0 -36 -4 -65 -8 -65 -10 0 -63 56 -85 90 -16 24 -17 22 -17 -59 0 -69 3 -86 19 -99 14 -13 71 -147 71 -169 0 -7 -47 -2 -55 7 -7 6 -9 -8 -7 -38 2 -36 -4 -59 -25 -97 -16 -27 -32 -49 -38 -49 -19 2 -49 79 -53 137 -5 63 10 112 39 128 16 8 19 22 19 101 0 86 -1 90 -17 76 -21 -19 -98 -58 -113 -58 -18 0 -11 66 13 111 25 46 82 93 104 85 10 -4 13 14 13 79 0 69 3 85 15 85 10 0 15 -10 15 -32z m1433 11 l97 -11 0 -39 c0 -29 4 -39 15 -39 59 0 115 -69 115 -140 0 -74 -57 -140 -120 -140 -14 0 -20 -7 -22 -22 0 -13 -2 -30 -2 -38 -1 -11 -11 -14 -34 -12 -31 3 -32 2 -32 -33 0 -88 -112 -128 -182 -66 -28 25 -33 36 -33 75 0 43 -2 46 -27 46 -33 0 -35 12 -13 110 24 107 25 106 -72 43 -49 -30 -109 -69 -135 -86 -44 -28 -48 -33 -48 -71 0 -45 -16 -112 -29 -120 -7 -4 -181 194 -181 207 0 10 117 17 147 8 32 -9 33 -8 205 170 l173 178 40 -4 c22 -2 84 -9 138 -16z m-754 -386 c21 -5 19 -7 -19 -20 -51 -18 -98 -10 -80 12 13 16 58 19 99 8z m-197 -50 l43 -18 -45 -5 c-31 -4 -50 -1 -63 9 -13 11 -15 16 -5 23 18 11 22 10 70 -9z m222 -63 c-37 -28 -84 -40 -84 -21 0 20 58 48 104 50 14 1 9 -7 -20 -29z m-189 -41 c16 0 14 -4 -10 -14 -37 -17 -91 -19 -101 -4 -11 18 18 30 56 24 19 -2 44 -5 55 -6z m264 -21 c-24 -46 -51 -78 -65 -78 -26 0 -14 35 23 67 45 38 58 41 42 11z m-438 -24 l44 -26 -54 7 c-63 7 -71 11 -71 31 0 22 33 17 81 -12z m503 -51 c-11 -65 -54 -113 -54 -61 0 19 46 98 57 98 2 0 1 -17 -3 -37z m-285 -23 c-20 -25 -41 -40 -55 -40 -36 0 -19 34 29 57 60 29 62 28 26 -17z m-179 -15 c0 -9 -79 -45 -100 -45 -43 0 -14 35 35 43 48 7 65 7 65 2z m254 -78 c-18 -53 -54 -84 -54 -47 0 19 59 104 67 97 1 -2 -4 -25 -13 -50z m100 -44 c-7 -49 -29 -87 -45 -77 -16 9 -10 36 19 80 15 24 28 44 30 44 2 0 0 -21 -4 -47z m-365 -3 c-20 -25 -41 -40 -55 -40 -52 0 3 52 84 79 2 1 -12 -17 -29 -39z m124 -32 c-20 -52 -31 -68 -49 -68 -25 0 -15 34 23 72 20 21 38 38 40 38 2 0 -5 -19 -14 -42z"/>
 <path d="M720 917 c0 -37 18 -88 46 -129 32 -45 44 -48 44 -10 0 62 -14 104 -42 133 -35 35 -48 37 -48 6z"/>
 <path d="M643 842 c-32 -25 -73 -92 -73 -118 0 -21 3 -22 29 -13 61 21 112 109 79 136 -10 9 -19 7 -35 -5z"/>
 <path d="M720 602 c0 -30 23 -84 42 -100 13 -10 12 -2 -4 45 -21 65 -38 89 -38 55z"/>
 <path d="M665 521 c-19 -38 -17 -111 5 -166 l12 -30 14 30 c17 38 17 131 0 170 l-13 30 -18 -34z"/>
 <path d="M2247 848 c-4 -29 -7 -79 -7 -110 0 -52 2 -58 21 -58 12 0 37 16 56 35 33 33 35 39 30 81 -5 49 -33 86 -73 98 -19 6 -22 1 -27 -46z"/>
 <path d="M1990 557 c0 -70 87 -104 129 -51 12 15 21 37 21 49 0 18 -7 24 -37 29 -21 3 -55 6 -75 6 -36 0 -38 -1 -38 -33z"/>
 <path d="M290 1821 c0 -5 6 -14 14 -20 7 -6 21 -41 31 -78 10 -38 24 -81 31 -98 l12 -30 6 25 c5 25 26 185 26 202 0 4 -27 8 -60 8 -33 0 -60 -4 -60 -9z"/>
 <path d="M973 1793 c4 -21 9 -71 13 -110 4 -40 10 -73 13 -73 8 0 51 120 51 141 0 9 9 28 20 42 11 14 20 28 20 31 0 3 -28 6 -61 6 l-62 0 6 -37z"/>
 <path d="M1243 1758 c-52 -78 -58 -93 -98 -288 -15 -69 -29 -132 -31 -140 -3 -8 -3 -12 -1 -10 3 3 71 79 151 170 81 91 151 165 156 165 8 0 62 -41 158 -120 20 -17 49 -38 63 -47 14 -9 48 -35 75 -59 43 -37 49 -40 55 -23 4 11 17 100 29 199 11 99 23 190 25 203 l5 22 -268 0 -269 0 -50 -72z"/>
 <path d="M2390 1818 c-1 -39 35 -328 41 -328 7 0 7 -2 44 175 35 171 36 165 -30 165 -37 0 -55 -4 -55 -12z"/>
 </g>

</svg>